<svg width="135" height="35" viewBox="0 0 135 35" fill="none" xmlns="http://www.w3.org/2000/svg">
<g clip-path="url(#clip0_0_752)">
<g clip-path="url(#clip1_0_752)">
<g clip-path="url(#clip2_0_752)">
<mask id="mask0_0_752" style="mask-type:luminance" maskUnits="userSpaceOnUse" x="1" y="0" width="133" height="35">
<path d="M1.48792 0.167969H133.488V34.006H1.48792V0.167969Z" fill="white"/>
</mask>
<g mask="url(#mask0_0_752)">
<g opacity="0.8">
<path d="M49.3459 8.25399L42.6149 25.987H46.0549L47.4859 21.841H54.4929L55.8999 25.987H59.3659L52.8859 8.25399H49.3459ZM48.2659 19.33C49.8229 14.985 50.4509 13.226 51.0269 11.443C51.8569 14.03 52.7109 16.442 53.7069 19.33H48.2659ZM67.4649 13.234C66.7073 13.2243 65.9583 13.3938 65.2786 13.7285C64.599 14.0632 64.008 14.5536 63.5539 15.16V8.25499H60.6089V25.988H63.4219V24.355C64.2779 25.585 65.4319 26.239 67.1399 26.239C70.2299 26.239 72.2899 23.827 72.2899 19.733C72.2899 15.639 70.4049 13.235 67.4649 13.235V13.234ZM66.4119 23.788C64.5519 23.788 63.4719 22.258 63.4719 19.601C63.4719 17.215 64.7279 15.708 66.5119 15.708C68.1869 15.708 69.2239 17.24 69.2239 19.751C69.2239 22.396 68.1459 23.777 66.4119 23.777V23.788ZM78.4679 15.366C79.6749 15.366 80.6299 16.019 81.2579 17.126L83.4479 15.643C82.3399 13.882 80.5039 13.13 78.5179 13.13C75.4239 13.13 73.6599 14.94 73.6599 16.902C73.6599 18.814 74.8909 19.946 76.8279 20.549L78.1679 20.976C80.0539 21.579 80.4809 21.931 80.4809 22.762C80.4809 23.516 79.7769 24.07 78.4939 24.07C77.1109 24.07 75.9539 23.315 75.3019 22.032L73.0129 23.539C74.0689 25.124 75.8039 26.357 78.3729 26.357C81.4929 26.357 83.4279 24.672 83.4279 22.357C83.4279 20.347 82.1709 19.314 79.9579 18.609L78.6179 18.207C77.0079 17.705 76.6079 17.353 76.6079 16.599C76.6079 15.845 77.2049 15.366 78.4679 15.366ZM89.3999 22.112V15.843H91.8229V13.486H89.3999V9.39799H86.4729L86.4159 13.488H84.4599V15.844H86.4159V22.696C86.4159 23.855 86.5939 24.738 87.1209 25.342C87.6489 25.947 88.4609 26.249 89.6889 26.249C90.4305 26.2468 91.1689 26.1518 91.8869 25.966V23.618C91.4999 23.761 91.0909 23.838 90.6769 23.844C89.7669 23.853 89.3999 23.401 89.3999 22.112ZM96.2999 15.412V13.487H93.4859V26.05H96.4339V20.188C96.4339 18.848 96.6549 17.964 97.0889 17.311C97.6348 16.527 98.4159 16.053 99.7689 16.068C100.135 16.074 100.498 16.13 100.848 16.235V13.488C100.499 13.3756 100.135 13.3189 99.7689 13.32C98.0368 13.325 97.0569 14.056 96.2999 15.412ZM112.139 22.615V18.092C112.139 16.129 111.876 15.098 111.095 14.368C110.258 13.562 109.057 13.16 107.346 13.16C104.15 13.16 102.133 14.668 101.932 17.388L104.755 17.64C104.906 16.256 105.584 15.475 107.12 15.475C107.901 15.475 108.504 15.643 108.856 16.003C109.207 16.363 109.335 16.809 109.335 17.511V18.181C107.346 18.308 104.931 18.66 103.698 19.212C102.214 19.892 101.408 20.95 101.408 22.562C101.408 24.802 103.018 26.238 105.308 26.238C107.093 26.238 108.452 25.61 109.408 24.452C109.681 25.704 110.562 26.166 112.137 26.166C112.592 26.175 113.045 26.107 113.477 25.965V24.055C112.345 24.26 112.147 23.595 112.139 22.615ZM109.335 20.728C109.308 21.432 109.184 22.138 108.78 22.717C108.227 23.546 107.296 24.025 106.164 24.025C104.855 24.025 104.251 23.345 104.251 22.44C104.251 21.735 104.552 21.256 105.333 20.904C106.214 20.477 107.901 20.224 109.335 20.149V20.729V20.728ZM120.212 23.883C118.277 23.883 117.12 22.426 117.12 19.662C117.12 16.872 118.428 15.592 120.135 15.592C121.316 15.592 122.22 16.144 122.574 17.802L125.214 16.898C124.634 14.662 122.926 13.128 120.208 13.128C116.463 13.128 114.099 15.616 114.099 19.712C114.099 23.833 116.413 26.346 120.058 26.346C122.905 26.346 124.559 24.838 125.289 22.752L122.649 21.848C122.349 23.18 121.545 23.883 120.212 23.883ZM130.887 22.112V15.843H133.308V13.486H130.887V9.39799H127.961L127.909 13.488H125.951V15.844H127.914V22.696C127.914 23.855 128.092 24.738 128.619 25.342C129.147 25.947 129.959 26.249 131.187 26.249C131.924 26.2458 132.659 26.1507 133.373 25.966V23.618C132.986 23.761 132.578 23.838 132.166 23.844C131.258 23.853 130.887 23.401 130.887 22.112ZM18.3179 0.334988C4.91785 0.299988 1.55785 3.64199 1.52285 17.043C1.48785 30.444 4.82785 33.803 18.2299 33.838C31.6319 33.873 34.9919 30.531 35.0269 17.13C35.0619 3.72999 31.7199 0.369988 18.3189 0.334988H18.3179ZM15.5259 26.248C14.2574 26.2482 13.0175 25.8722 11.9627 25.1677C10.908 24.4631 10.0858 23.4616 9.6003 22.2898C9.11476 21.118 8.98762 19.8286 9.23496 18.5845C9.48229 17.3404 10.093 16.1976 10.9898 15.3007C11.8867 14.4037 13.0293 13.7928 14.2734 13.5453C15.5174 13.2978 16.8069 13.4247 17.9788 13.9101C19.1507 14.3954 20.1523 15.2174 20.857 16.272C21.5617 17.3266 21.9379 18.5666 21.9379 19.835C21.936 21.5351 21.2599 23.165 20.0578 24.3673C18.8558 25.5695 17.2259 26.2459 15.5259 26.248ZM27.1729 25.985H24.0329V11.328H9.37385V8.18799H27.1719V25.984L27.1729 25.985Z" fill="white"/>
<path d="M15.5248 16.564C15.0951 16.564 14.6695 16.6486 14.2725 16.8131C13.8754 16.9775 13.5147 17.2186 13.2108 17.5225C12.9069 17.8263 12.6659 18.1871 12.5014 18.5841C12.337 18.9812 12.2523 19.4067 12.2523 19.8365C12.2523 20.2662 12.337 20.6918 12.5014 21.0888C12.6659 21.4858 12.9069 21.8466 13.2108 22.1505C13.5147 22.4544 13.8754 22.6954 14.2725 22.8599C14.6695 23.0243 15.0951 23.109 15.5248 23.109C16.3926 23.109 17.2249 22.7642 17.8385 22.1506C18.4521 21.537 18.7968 20.7048 18.7968 19.837C18.7968 18.9692 18.4521 18.1369 17.8385 17.5233C17.2249 16.9097 16.3926 16.564 15.5248 16.564Z" fill="white"/>
</g>
</g>
</g>
</g>
</g>
<defs>
<clipPath id="clip0_0_752">
<rect width="134" height="34" fill="white" transform="translate(0.319946 0.167969)"/>
</clipPath>
<clipPath id="clip1_0_752">
<rect width="133" height="34" fill="white" transform="translate(0.819946 0.167969)"/>
</clipPath>
<clipPath id="clip2_0_752">
<rect width="133" height="34" fill="white" transform="translate(0.819946 0.167969)"/>
</clipPath>
</defs>
</svg>
