<svg width="142" height="34" viewBox="0 0 142 34" fill="none" xmlns="http://www.w3.org/2000/svg">
<g clip-path="url(#clip0_0_676)">
<g clip-path="url(#clip1_0_676)">
<g clip-path="url(#clip2_0_676)">
<mask id="mask0_0_676" style="mask-type:luminance" maskUnits="userSpaceOnUse" x="0" y="0" width="141" height="33">
<path d="M0.994934 0.167969H140.995V32.184H0.994934V0.167969Z" fill="white"/>
</mask>
<g mask="url(#mask0_0_676)">
<g opacity="0.8">
<path d="M49.1729 11.2521C49.1729 10.5841 48.6579 10.0361 47.9369 10.0361C47.2149 10.0361 46.6999 10.5841 46.6999 11.2521V21.1171C46.6999 21.7851 47.2149 22.3331 47.9359 22.3331C48.6749 22.3331 49.1729 21.7851 49.1729 21.1171V11.2521ZM61.3499 10.0361C60.6289 10.0361 60.1299 10.5841 60.1299 11.2521V15.4651L60.1999 19.2331L58.7049 15.7051L56.7479 11.6971C56.1469 10.4471 55.4599 10.0371 54.4809 10.0371C53.0389 10.0371 52.4029 10.9441 52.4029 12.2451V21.1171C52.4029 21.7851 52.9009 22.3331 53.6229 22.3331C54.3429 22.3331 54.8419 21.7851 54.8419 21.1171L54.8249 16.9551L54.7729 12.6911L56.3699 16.5951L58.3449 20.6711C58.9629 21.9731 59.6149 22.3501 60.6109 22.3501C61.8989 22.3501 62.5689 21.5621 62.5689 20.1061V11.2521C62.5689 10.5841 62.0719 10.0361 61.3499 10.0361ZM71.6849 12.5541L74.4849 12.6221C75.1369 12.6401 75.6519 12.1421 75.6519 11.4231C75.6519 10.7041 75.1369 10.2081 74.4849 10.2081L66.3789 10.1911C65.7439 10.1911 65.2119 10.6871 65.2119 11.4061C65.2119 12.1261 65.7439 12.6221 66.3789 12.6061L69.1959 12.5541V21.1171C69.1959 21.7851 69.7109 22.3331 70.4319 22.3331C71.1699 22.3331 71.6859 21.7851 71.6859 21.1171L71.6849 12.5541ZM79.9849 22.1781H86.0109C86.6469 22.1781 87.1619 21.6981 87.1619 21.0311C87.1619 20.3461 86.6469 19.8661 86.0119 19.8661L80.7739 19.8831V17.0231H85.3069C85.9259 17.0231 86.4239 16.5611 86.4239 15.9271C86.4239 15.2771 85.9259 14.8141 85.3069 14.8141L80.7739 14.8481V12.4851H86.0109C86.6469 12.4851 87.1619 12.0051 87.1619 11.3201C87.1619 10.6351 86.6469 10.1731 86.0119 10.1731L80.0019 10.1901C78.9019 10.1901 78.2839 10.8071 78.2839 11.9031V20.4661C78.2839 21.5621 78.9029 22.1781 79.9849 22.1781ZM96.9789 17.2981C98.6099 16.8701 99.5719 15.6021 99.5719 13.9241C99.5719 12.0571 98.3519 10.1911 95.4339 10.1911H91.6549C90.5549 10.1911 89.9369 10.8071 89.9369 11.9031V21.1171C89.9369 21.7851 90.4529 22.3331 91.2079 22.3331C91.9469 22.3331 92.4779 21.7851 92.4779 21.1171L92.4619 17.8971H94.5399L96.6519 21.6991C96.9949 22.2811 97.7159 22.5211 98.3859 22.1791C99.0559 21.8191 99.2449 21.0991 98.8839 20.5171L96.9779 17.2971L96.9789 17.2981ZM92.4629 12.4681H95.4509C96.4639 12.4681 97.0989 13.1021 97.0989 14.0441C97.0989 14.9691 96.4989 15.6541 95.4849 15.6541H92.4629V12.4681ZM107.156 22.4021C109.663 22.4021 111.277 21.2721 111.827 19.4391C112.119 18.3941 111.501 17.6411 110.573 17.6411C110.007 17.6411 109.629 17.9311 109.406 18.5651C109.062 19.5251 108.221 20.1241 107.019 20.1241C105.113 20.1241 104.288 18.8391 104.288 16.1681C104.288 13.5481 105.13 12.2981 107.019 12.2981C108.204 12.2981 108.891 12.7941 109.32 13.9411C109.56 14.5921 109.955 14.8831 110.539 14.8831C111.432 14.8831 112.084 14.1641 111.81 13.1711C111.26 11.1501 109.663 10.0201 107.087 10.0201C103.55 10.0201 101.747 12.1771 101.747 16.1681C101.747 20.1921 103.55 22.4021 107.156 22.4021ZM119.365 22.3671C123.005 22.3671 124.808 20.1401 124.808 16.1671C124.808 12.1591 122.954 9.95007 119.365 9.95007C115.759 9.95007 113.955 12.1941 113.938 16.1671C113.938 20.1571 115.776 22.3671 119.365 22.3671ZM119.365 20.0721C117.338 20.0721 116.463 18.7871 116.463 16.1671C116.463 13.5121 117.356 12.2281 119.348 12.2281C121.357 12.2281 122.301 13.5121 122.284 16.1671C122.284 18.8041 121.391 20.0721 119.365 20.0721ZM140.794 12.1781C140.794 10.8241 139.953 10.0201 138.647 10.0201C137.583 10.0201 136.776 10.6021 136.381 11.9381L135.059 16.2361L134.183 19.3361L133.341 16.2361L131.933 11.9381C131.538 10.6881 130.851 10.0201 129.649 10.0201C128.327 10.0201 127.503 10.8071 127.503 12.1771V21.1171C127.503 21.7851 127.984 22.3331 128.688 22.3331C129.392 22.3331 129.873 21.7851 129.873 21.1171L129.855 16.8011L129.735 12.1771L131.092 16.9041L132.534 21.0831C132.843 22.0081 133.427 22.3161 134.183 22.3161C134.887 22.3161 135.453 22.0591 135.745 21.1171L137.119 16.9041L138.579 12.1441L138.441 16.8021V21.1171C138.441 21.7851 138.939 22.3331 139.626 22.3331C140.33 22.3331 140.811 21.7851 140.811 21.1171L140.794 12.1771V12.1781ZM28.7909 17.7861C28.7909 18.0711 28.6779 18.3451 28.4779 18.5461C28.379 18.6457 28.2614 18.7247 28.1318 18.7786C28.0023 18.8326 27.8633 18.8604 27.7229 18.8604C27.5826 18.8604 27.4436 18.8326 27.314 18.7786C27.1845 18.7247 27.0668 18.6457 26.9679 18.5461C26.7675 18.3439 26.655 18.0708 26.6549 17.7861V8.17207C26.6549 7.88707 26.7679 7.61307 26.9679 7.41207C27.0668 7.31247 27.1845 7.23343 27.314 7.17949C27.4436 7.12555 27.5826 7.09778 27.7229 7.09778C27.8633 7.09778 28.0023 7.12555 28.1318 7.17949C28.2614 7.23343 28.379 7.31247 28.4779 7.41207C28.6779 7.61307 28.7909 7.88707 28.7909 8.17207V17.7861ZM28.4209 24.4461C28.2789 24.5891 24.3079 27.9241 17.0279 27.9241C9.74793 27.9241 5.80493 24.6081 5.63593 24.4641C5.52989 24.3743 5.44262 24.2645 5.37913 24.141C5.31563 24.0174 5.27717 23.8825 5.26593 23.7441C5.24287 23.4636 5.33166 23.1853 5.51293 22.9701C5.69693 22.7564 5.95806 22.6244 6.23919 22.6028C6.52031 22.5813 6.79853 22.672 7.01293 22.8551C7.07493 22.8991 10.6219 25.7991 17.0189 25.7991C23.4169 25.7991 26.9909 22.8821 27.0259 22.8551C27.2424 22.6727 27.5217 22.5826 27.8039 22.6041C28.0862 22.6256 28.3486 22.757 28.5349 22.9701C28.7153 23.1823 28.8052 23.4569 28.7854 23.7347C28.7656 24.0126 28.6376 24.2715 28.4289 24.4561L28.4199 24.4461H28.4209ZM5.25593 8.17307C5.27179 7.88745 5.3993 7.61952 5.61093 7.42707C5.82293 7.23507 6.10093 7.13607 6.38493 7.15007C6.64916 7.16678 6.89794 7.28041 7.08357 7.46918C7.26921 7.65796 7.37865 7.9086 7.39093 8.17307V17.7681C7.39093 18.0531 7.27893 18.3271 7.07893 18.5281C6.9801 18.6278 6.8625 18.7069 6.73292 18.761C6.60333 18.815 6.46433 18.8428 6.32393 18.8428C6.18354 18.8428 6.04454 18.815 5.91495 18.761C5.78537 18.7069 5.66776 18.6278 5.56893 18.5281C5.36851 18.3259 5.25602 18.0528 5.25593 17.7681V8.17207V8.17307ZM10.6129 6.03807C10.6289 5.75107 10.7569 5.48307 10.9689 5.29107C11.1717 5.10614 11.4384 5.00707 11.7127 5.01472C11.9871 5.02236 12.2478 5.13613 12.4399 5.33207C12.6259 5.52107 12.7359 5.77207 12.7489 6.03807V20.2671C12.7489 20.5521 12.6359 20.8271 12.4359 21.0271C12.337 21.1267 12.2194 21.2057 12.0898 21.2596C11.9603 21.3136 11.8213 21.3414 11.6809 21.3414C11.5406 21.3414 11.4016 21.3136 11.272 21.2596C11.1425 21.2057 11.0248 21.1267 10.9259 21.0271C10.7255 20.8249 10.613 20.5518 10.6129 20.2671V6.03807ZM15.9959 5.50407C15.9959 5.21907 16.1079 4.94507 16.3089 4.74407C16.4078 4.64447 16.5255 4.56543 16.655 4.51149C16.7846 4.45755 16.9236 4.42978 17.0639 4.42978C17.2043 4.42978 17.3433 4.45755 17.4728 4.51149C17.6024 4.56543 17.72 4.64447 17.8189 4.74407C18.0189 4.94507 18.1309 5.21907 18.1309 5.50407V20.9781C18.1309 21.2641 18.0189 21.5381 17.8189 21.7391C17.7201 21.8388 17.6025 21.9179 17.4729 21.972C17.3433 22.026 17.2043 22.0538 17.0639 22.0538C16.9235 22.0538 16.7845 22.026 16.655 21.972C16.5254 21.9179 16.4078 21.8388 16.3089 21.7391C16.1086 21.5368 15.9961 21.2637 15.9959 20.9791V5.50407ZM21.2899 6.03807C21.2899 5.75207 21.4029 5.47807 21.6029 5.27707C21.7018 5.17735 21.8194 5.0982 21.949 5.04419C22.0785 4.99017 22.2175 4.96236 22.3579 4.96236C22.4983 4.96236 22.6373 4.99017 22.7669 5.04419C22.8965 5.0982 23.0141 5.17735 23.1129 5.27707C23.3129 5.47907 23.4259 5.75207 23.4259 6.03707V20.2681C23.4259 20.5531 23.3129 20.8281 23.1129 21.0281C23.014 21.1277 22.8964 21.2067 22.7668 21.2606C22.6373 21.3146 22.4983 21.3424 22.3579 21.3424C22.2176 21.3424 22.0786 21.3146 21.949 21.2606C21.8195 21.2067 21.7018 21.1277 21.6029 21.0281C21.4025 20.8259 21.29 20.5528 21.2899 20.2681V6.03807ZM29.0819 0.168069H5.00993C4.48457 0.164329 3.96371 0.26514 3.47769 0.464632C2.99166 0.664125 2.55017 0.958313 2.17893 1.33007C1.42344 2.08238 0.997576 3.10389 0.994934 4.17007L0.994934 28.1821C1.00041 29.2477 1.42584 30.2681 2.17893 31.0221C2.55085 31.3926 2.99232 31.686 3.47799 31.8855C3.96365 32.0849 4.48393 32.1864 5.00893 32.1841H29.0819C29.6066 32.1878 30.1267 32.0873 30.6122 31.8883C31.0977 31.6894 31.5388 31.3959 31.9099 31.0251C32.6652 30.2748 33.0921 29.2556 33.0969 28.1911V4.17107C33.0924 3.10664 32.6684 2.08691 31.9169 1.33307C31.5456 0.962327 31.1047 0.668565 30.6196 0.468643C30.1345 0.268721 29.6146 0.166575 29.0899 0.168069" fill="white"/>
</g>
</g>
</g>
</g>
</g>
<defs>
<clipPath id="clip0_0_676">
<rect width="141" height="33" fill="white" transform="translate(0.494934 0.167969)"/>
</clipPath>
<clipPath id="clip1_0_676">
<rect width="140" height="33" fill="white" transform="translate(0.994934 0.167969)"/>
</clipPath>
<clipPath id="clip2_0_676">
<rect width="140" height="33" fill="white" transform="translate(0.994934 0.167969)"/>
</clipPath>
</defs>
</svg>
