<svg width="112" height="34" viewBox="0 0 112 34" fill="none" xmlns="http://www.w3.org/2000/svg">
<g clip-path="url(#clip0_0_600)">
<g clip-path="url(#clip1_0_600)">
<mask id="mask0_0_600" style="mask-type:luminance" maskUnits="userSpaceOnUse" x="0" y="0" width="111" height="34">
<path d="M0.498993 0.167969H110.499V33.168H0.498993V0.167969Z" fill="white"/>
</mask>
<g mask="url(#mask0_0_600)">
<path d="M33.51 14.941H23.454L32.162 9.91397L30.435 6.92197L21.725 11.949L26.753 3.24197L23.761 1.51597L18.733 10.22V0.167969H15.275V10.221L10.247 1.51497L7.25499 3.24297L12.282 11.947L3.57499 6.92197L1.84499 9.91397L10.555 14.941H0.497986V18.396H10.553L1.84499 23.423L3.57199 26.415L12.282 21.388L7.25399 30.095L10.246 31.822L15.276 23.116V33.168H18.732V22.901L23.852 31.767L26.658 30.147L21.537 21.279L30.432 26.414L32.16 23.422L23.453 18.395H33.508V14.941H33.51ZM17.005 21.365C15.9174 21.3664 14.8631 20.9904 14.0218 20.3011C13.1806 19.6119 12.6046 18.652 12.3922 17.5854C12.1798 16.5188 12.3441 15.4115 12.857 14.4525C13.37 13.4936 14.1999 12.7423 15.205 12.327C16.0635 11.9716 17.008 11.8786 17.9193 12.0598C18.8306 12.241 19.6678 12.6882 20.325 13.345C20.9819 14.0019 21.4293 14.8388 21.6106 15.7499C21.792 16.6611 21.6991 17.6055 21.3438 18.4639C20.9884 19.3223 20.3866 20.056 19.6143 20.5724C18.842 21.0888 17.934 21.3646 17.005 21.365Z" fill="white" fill-opacity="0.4"/>
<path d="M42.419 28.738V4.59802H46.849V28.738H42.419ZM84.915 12.333H89.145V14.335C90.045 12.735 92.145 11.866 93.944 11.866C96.177 11.866 97.976 12.834 98.808 14.6C100.106 12.598 101.84 11.866 104.006 11.866C107.037 11.866 109.935 13.7 109.935 18.101V28.738H105.638V19.002C105.638 17.235 104.771 15.9 102.739 15.9C100.839 15.9 99.706 17.369 99.706 19.136V28.739H95.31V19.002C95.31 17.235 94.41 15.9 92.41 15.9C90.478 15.9 89.345 17.336 89.345 19.136V28.739H84.915V12.333ZM56.863 29.213C51.871 29.213 48.257 25.51 48.257 20.536C48.257 15.641 51.86 11.85 56.863 11.85C61.89 11.85 65.469 15.676 65.469 20.536C65.469 25.475 61.853 29.213 56.863 29.213ZM56.863 15.865C55.6247 15.8666 54.4377 16.3595 53.5625 17.2354C52.6874 18.1114 52.1955 19.2988 52.195 20.537C52.196 21.775 52.6881 22.962 53.5632 23.8377C54.4383 24.7134 55.625 25.2062 56.863 25.208C58.1008 25.2059 59.2872 24.713 60.1621 23.8373C61.037 22.9617 61.5289 21.7748 61.53 20.537C61.5292 19.299 61.0374 18.1119 60.1625 17.2361C59.2875 16.3602 58.101 15.8671 56.863 15.865ZM74.933 29.214C69.941 29.214 66.326 25.51 66.326 20.536C66.326 15.641 69.93 11.85 74.933 11.85C79.96 11.85 83.539 15.676 83.539 20.536C83.539 25.475 79.92 29.214 74.933 29.214ZM74.933 15.809C73.6806 15.8109 72.48 16.3093 71.5946 17.1951C70.7093 18.0809 70.2113 19.2816 70.21 20.534C70.211 21.7866 70.7089 22.9876 71.5943 23.8736C72.4797 24.7596 73.6804 25.2582 74.933 25.26C76.1854 25.2579 77.3858 24.7592 78.271 23.8732C79.1562 22.9873 79.6539 21.7864 79.655 20.534C79.6536 19.2818 79.1558 18.0812 78.2707 17.1955C77.3855 16.3097 76.1852 15.8111 74.933 15.809Z" fill="white"/>
</g>
</g>
</g>
<defs>
<clipPath id="clip0_0_600">
<rect width="111" height="33" fill="white" transform="translate(0.164993 0.167969)"/>
</clipPath>
<clipPath id="clip1_0_600">
<rect width="111" height="33" fill="white" transform="translate(0.164993 0.167969)"/>
</clipPath>
</defs>
</svg>
