<svg width="116" height="21" viewBox="0 0 116 21" fill="none" xmlns="http://www.w3.org/2000/svg">
<g clip-path="url(#clip0_0_691)">
<g clip-path="url(#clip1_0_691)">
<mask id="mask0_0_691" style="mask-type:luminance" maskUnits="userSpaceOnUse" x="-1" y="0" width="21" height="21">
<path d="M19.9949 0.738037H-0.00506592V20.738H19.9949V0.738037Z" fill="white"/>
</mask>
<g mask="url(#mask0_0_691)">
<path d="M9.53328 2.34802C9.70408 1.93738 10.2858 1.93738 10.4566 2.34802L12.5227 7.3155C12.5947 7.48862 12.7575 7.60691 12.9444 7.62189L18.3072 8.05182C18.7505 8.08736 18.9303 8.64062 18.5925 8.92995L14.5066 12.43C14.3642 12.552 14.302 12.7434 14.3455 12.9257L15.5938 18.1589C15.697 18.5915 15.2264 18.9335 14.8468 18.7016L10.2555 15.8973C10.0955 15.7996 9.89432 15.7996 9.73431 15.8973L5.143 18.7016C4.76345 18.9335 4.29282 18.5915 4.39602 18.1589L5.64433 12.9257C5.68783 12.7434 5.62564 12.552 5.48325 12.43L1.39735 8.92995C1.05958 8.64062 1.23935 8.08736 1.68267 8.05182L7.04548 7.62189C7.23238 7.60691 7.39518 7.48862 7.46719 7.3155L9.53328 2.34802Z" fill="#F2F4F7"/>
<mask id="mask1_0_691" style="mask-type:luminance" maskUnits="userSpaceOnUse" x="-1" y="0" width="21" height="21">
<path d="M19.9949 0.738037H-0.00506592V20.738H19.9949V0.738037Z" fill="white"/>
</mask>
<g mask="url(#mask1_0_691)">
<path d="M9.53328 2.34802C9.70408 1.93738 10.2858 1.93738 10.4566 2.34802L12.5227 7.3155C12.5947 7.48862 12.7575 7.60691 12.9444 7.62189L18.3072 8.05182C18.7505 8.08736 18.9303 8.64062 18.5925 8.92995L14.5066 12.43C14.3642 12.552 14.302 12.7434 14.3455 12.9257L15.5938 18.1589C15.697 18.5915 15.2264 18.9335 14.8468 18.7016L10.2555 15.8973C10.0955 15.7996 9.89432 15.7996 9.73431 15.8973L5.143 18.7016C4.76345 18.9335 4.29282 18.5915 4.39602 18.1589L5.64433 12.9257C5.68783 12.7434 5.62564 12.552 5.48325 12.43L1.39735 8.92995C1.05958 8.64062 1.23935 8.08736 1.68267 8.05182L7.04548 7.62189C7.23238 7.60691 7.39518 7.48862 7.46719 7.3155L9.53328 2.34802Z" fill="#FEC84B"/>
</g>
</g>
<mask id="mask2_0_691" style="mask-type:luminance" maskUnits="userSpaceOnUse" x="23" y="0" width="21" height="21">
<path d="M43.9949 0.738037H23.9949V20.738H43.9949V0.738037Z" fill="white"/>
</mask>
<g mask="url(#mask2_0_691)">
<path d="M33.5332 2.34802C33.704 1.93738 34.2858 1.93738 34.4566 2.34802L36.5227 7.3155C36.5947 7.48862 36.7575 7.60691 36.9444 7.62189L42.3072 8.05182C42.7505 8.08736 42.9303 8.64062 42.5925 8.92995L38.5066 12.43C38.3642 12.552 38.302 12.7434 38.3455 12.9257L39.5938 18.1589C39.697 18.5915 39.2264 18.9335 38.8468 18.7016L34.2555 15.8973C34.0955 15.7996 33.8943 15.7996 33.7343 15.8973L29.143 18.7016C28.7634 18.9335 28.2928 18.5915 28.396 18.1589L29.6443 12.9257C29.6878 12.7434 29.6256 12.552 29.4832 12.43L25.3973 8.92995C25.0595 8.64062 25.2393 8.08736 25.6826 8.05182L31.0454 7.62189C31.2323 7.60691 31.3951 7.48862 31.4671 7.3155L33.5332 2.34802Z" fill="#F2F4F7"/>
<mask id="mask3_0_691" style="mask-type:luminance" maskUnits="userSpaceOnUse" x="23" y="0" width="21" height="21">
<path d="M43.9949 0.738037H23.9949V20.738H43.9949V0.738037Z" fill="white"/>
</mask>
<g mask="url(#mask3_0_691)">
<path d="M33.5332 2.34802C33.704 1.93738 34.2858 1.93738 34.4566 2.34802L36.5227 7.3155C36.5947 7.48862 36.7575 7.60691 36.9444 7.62189L42.3072 8.05182C42.7505 8.08736 42.9303 8.64062 42.5925 8.92995L38.5066 12.43C38.3642 12.552 38.302 12.7434 38.3455 12.9257L39.5938 18.1589C39.697 18.5915 39.2264 18.9335 38.8468 18.7016L34.2555 15.8973C34.0955 15.7996 33.8943 15.7996 33.7343 15.8973L29.143 18.7016C28.7634 18.9335 28.2928 18.5915 28.396 18.1589L29.6443 12.9257C29.6878 12.7434 29.6256 12.552 29.4832 12.43L25.3973 8.92995C25.0595 8.64062 25.2393 8.08736 25.6826 8.05182L31.0454 7.62189C31.2323 7.60691 31.3951 7.48862 31.4671 7.3155L33.5332 2.34802Z" fill="#FEC84B"/>
</g>
</g>
<mask id="mask4_0_691" style="mask-type:luminance" maskUnits="userSpaceOnUse" x="47" y="0" width="21" height="21">
<path d="M67.9949 0.738037H47.9949V20.738H67.9949V0.738037Z" fill="white"/>
</mask>
<g mask="url(#mask4_0_691)">
<path d="M57.5332 2.34802C57.704 1.93738 58.2858 1.93738 58.4566 2.34802L60.5227 7.3155C60.5947 7.48862 60.7575 7.60691 60.9444 7.62189L66.3072 8.05182C66.7505 8.08736 66.9303 8.64062 66.5925 8.92995L62.5066 12.43C62.3642 12.552 62.302 12.7434 62.3455 12.9257L63.5938 18.1589C63.697 18.5915 63.2264 18.9335 62.8468 18.7016L58.2555 15.8973C58.0955 15.7996 57.8943 15.7996 57.7343 15.8973L53.143 18.7016C52.7634 18.9335 52.2928 18.5915 52.396 18.1589L53.6443 12.9257C53.6878 12.7434 53.6256 12.552 53.4832 12.43L49.3973 8.92995C49.0595 8.64062 49.2393 8.08736 49.6826 8.05182L55.0454 7.62189C55.2323 7.60691 55.3951 7.48862 55.4671 7.3155L57.5332 2.34802Z" fill="#F2F4F7"/>
<mask id="mask5_0_691" style="mask-type:luminance" maskUnits="userSpaceOnUse" x="47" y="0" width="21" height="21">
<path d="M67.9949 0.738037H47.9949V20.738H67.9949V0.738037Z" fill="white"/>
</mask>
<g mask="url(#mask5_0_691)">
<path d="M57.5332 2.34802C57.704 1.93738 58.2858 1.93738 58.4566 2.34802L60.5227 7.3155C60.5947 7.48862 60.7575 7.60691 60.9444 7.62189L66.3072 8.05182C66.7505 8.08736 66.9303 8.64062 66.5925 8.92995L62.5066 12.43C62.3642 12.552 62.302 12.7434 62.3455 12.9257L63.5938 18.1589C63.697 18.5915 63.2264 18.9335 62.8468 18.7016L58.2555 15.8973C58.0955 15.7996 57.8943 15.7996 57.7343 15.8973L53.143 18.7016C52.7634 18.9335 52.2928 18.5915 52.396 18.1589L53.6443 12.9257C53.6878 12.7434 53.6256 12.552 53.4832 12.43L49.3973 8.92995C49.0595 8.64062 49.2393 8.08736 49.6826 8.05182L55.0454 7.62189C55.2323 7.60691 55.3951 7.48862 55.4671 7.3155L57.5332 2.34802Z" fill="#FEC84B"/>
</g>
</g>
<mask id="mask6_0_691" style="mask-type:luminance" maskUnits="userSpaceOnUse" x="71" y="0" width="21" height="21">
<path d="M91.9949 0.738037H71.9949V20.738H91.9949V0.738037Z" fill="white"/>
</mask>
<g mask="url(#mask6_0_691)">
<path d="M81.5332 2.34802C81.704 1.93738 82.2858 1.93738 82.4566 2.34802L84.5227 7.3155C84.5947 7.48862 84.7575 7.60691 84.9444 7.62189L90.3072 8.05182C90.7505 8.08736 90.9303 8.64062 90.5925 8.92995L86.5066 12.43C86.3642 12.552 86.302 12.7434 86.3455 12.9257L87.5938 18.1589C87.697 18.5915 87.2264 18.9335 86.8468 18.7016L82.2555 15.8973C82.0955 15.7996 81.8943 15.7996 81.7343 15.8973L77.143 18.7016C76.7634 18.9335 76.2928 18.5915 76.396 18.1589L77.6443 12.9257C77.6878 12.7434 77.6256 12.552 77.4832 12.43L73.3973 8.92995C73.0595 8.64062 73.2393 8.08736 73.6826 8.05182L79.0454 7.62189C79.2323 7.60691 79.3951 7.48862 79.4671 7.3155L81.5332 2.34802Z" fill="#F2F4F7"/>
<mask id="mask7_0_691" style="mask-type:luminance" maskUnits="userSpaceOnUse" x="71" y="0" width="21" height="21">
<path d="M91.9949 0.738037H71.9949V20.738H91.9949V0.738037Z" fill="white"/>
</mask>
<g mask="url(#mask7_0_691)">
<path d="M81.5332 2.34802C81.704 1.93738 82.2858 1.93738 82.4566 2.34802L84.5227 7.3155C84.5947 7.48862 84.7575 7.60691 84.9444 7.62189L90.3072 8.05182C90.7505 8.08736 90.9303 8.64062 90.5925 8.92995L86.5066 12.43C86.3642 12.552 86.302 12.7434 86.3455 12.9257L87.5938 18.1589C87.697 18.5915 87.2264 18.9335 86.8468 18.7016L82.2555 15.8973C82.0955 15.7996 81.8943 15.7996 81.7343 15.8973L77.143 18.7016C76.7634 18.9335 76.2928 18.5915 76.396 18.1589L77.6443 12.9257C77.6878 12.7434 77.6256 12.552 77.4832 12.43L73.3973 8.92995C73.0595 8.64062 73.2393 8.08736 73.6826 8.05182L79.0454 7.62189C79.2323 7.60691 79.3951 7.48862 79.4671 7.3155L81.5332 2.34802Z" fill="#FEC84B"/>
</g>
</g>
<mask id="mask8_0_691" style="mask-type:luminance" maskUnits="userSpaceOnUse" x="95" y="0" width="21" height="21">
<path d="M115.995 0.738037H95.9949V20.738H115.995V0.738037Z" fill="white"/>
</mask>
<g mask="url(#mask8_0_691)">
<path d="M105.533 2.34802C105.704 1.93738 106.286 1.93738 106.457 2.34802L108.523 7.3155C108.595 7.48862 108.758 7.60691 108.944 7.62189L114.307 8.05182C114.751 8.08736 114.93 8.64062 114.593 8.92995L110.507 12.43C110.364 12.552 110.302 12.7434 110.346 12.9257L111.594 18.1589C111.697 18.5915 111.226 18.9335 110.847 18.7016L106.256 15.8973C106.096 15.7996 105.894 15.7996 105.734 15.8973L101.143 18.7016C100.764 18.9335 100.293 18.5915 100.396 18.1589L101.644 12.9257C101.688 12.7434 101.626 12.552 101.483 12.43L97.3973 8.92995C97.0595 8.64062 97.2393 8.08736 97.6826 8.05182L103.046 7.62189C103.232 7.60691 103.395 7.48862 103.467 7.3155L105.533 2.34802Z" fill="#F2F4F7"/>
<mask id="mask9_0_691" style="mask-type:luminance" maskUnits="userSpaceOnUse" x="95" y="0" width="21" height="21">
<path d="M115.995 0.738037H95.9949V20.738H115.995V0.738037Z" fill="white"/>
</mask>
<g mask="url(#mask9_0_691)">
<path d="M105.533 2.34802C105.704 1.93738 106.286 1.93738 106.457 2.34802L108.523 7.3155C108.595 7.48862 108.758 7.60691 108.944 7.62189L114.307 8.05182C114.751 8.08736 114.93 8.64062 114.593 8.92995L110.507 12.43C110.364 12.552 110.302 12.7434 110.346 12.9257L111.594 18.1589C111.697 18.5915 111.226 18.9335 110.847 18.7016L106.256 15.8973C106.096 15.7996 105.894 15.7996 105.734 15.8973L101.143 18.7016C100.764 18.9335 100.293 18.5915 100.396 18.1589L101.644 12.9257C101.688 12.7434 101.626 12.552 101.483 12.43L97.3973 8.92995C97.0595 8.64062 97.2393 8.08736 97.6826 8.05182L103.046 7.62189C103.232 7.60691 103.395 7.48862 103.467 7.3155L105.533 2.34802Z" fill="#FEC84B"/>
</g>
</g>
</g>
</g>
<defs>
<clipPath id="clip0_0_691">
<rect width="116" height="20" fill="white" transform="translate(-0.00506592 0.738037)"/>
</clipPath>
<clipPath id="clip1_0_691">
<rect width="116" height="20" fill="white" transform="translate(-0.00506592 0.738037)"/>
</clipPath>
</defs>
</svg>
