<svg width="126" height="41" viewBox="0 0 126 41" fill="gray" xmlns="http://www.w3.org/2000/svg">
<g clip-path="url(#clip0_4064_4)">
<g clip-path="url(#clip1_4064_4)">
<mask id="mask0_4064_4" style="mask-type:luminance" maskUnits="userSpaceOnUse" x="0" y="0" width="126" height="40">
<path d="M0.0115356 0.544678H125.352V39.9661H0.0115356V0.544678Z" fill="white"/>
</mask>
<g mask="url(#mask0_4064_4)">
<path d="M15.7605 5.65491C14.1051 5.65491 11.994 8.11405 11.994 12.3951V14.483C10.9009 13.6696 9.62511 13.2263 8.03061 13.2263C3.52016 13.2441 0.0115356 17.3843 0.0115356 22.5143C0.0115356 27.6454 3.36796 31.7857 8.00017 31.7857C10.2321 31.7857 11.994 30.8471 13.1481 29.556C13.9082 30.7762 14.8491 31.4488 15.6692 31.4488C16.3075 31.4488 16.6271 31.0421 16.6271 30.1389V6.87509C16.6271 6.06164 16.3075 5.65491 15.7605 5.65491ZM8.34933 26.9195C6.11649 26.9195 4.70462 25.0267 4.70462 22.4977C4.70462 19.9676 6.11649 18.0737 8.34933 18.0737C10.5822 18.0737 11.994 19.9676 11.994 22.4966C11.994 25.0444 10.5822 26.9195 8.34933 26.9195ZM33.7271 13.9167H32.163C31.0394 13.9167 30.6294 14.4476 30.6294 15.7032V22.3736C30.6294 25.0621 29.4441 26.6546 27.5308 26.6546C25.5567 26.6546 24.554 25.132 24.554 22.3026V15.7032C24.554 14.3944 24.0983 13.9167 23.0204 13.9167H21.4563C20.3775 13.9167 19.9218 14.3944 19.9218 15.7032V22.4434C19.9218 28.2106 22.4125 31.7846 26.7868 31.7846C28.7305 31.7846 30.462 30.9003 31.6769 29.3609C32.4057 30.7063 33.4084 31.4488 34.3046 31.4488C34.8507 31.4488 35.2607 31.0421 35.2607 30.1389V15.7032C35.2607 14.3944 34.805 13.9167 33.7271 13.9167ZM46.0597 31.7846C50.7519 31.7846 54.2453 27.6443 54.2453 22.5143C54.2453 17.2602 50.7366 13.2441 46.0597 13.2441C41.397 13.2441 37.8732 17.3843 37.8732 22.5154C37.8732 27.7684 41.397 31.7846 46.0597 31.7846ZM46.0597 26.9195C43.9486 26.9195 42.5501 25.0267 42.5501 22.4977C42.5501 19.9676 43.9325 18.0737 46.0597 18.0737C48.2012 18.0737 49.5674 19.9676 49.5674 22.4966C49.5522 25.0444 48.2012 26.9195 46.0597 26.9195ZM58.3304 31.112H59.8945C60.9581 31.112 61.4281 30.6354 61.4281 29.3255V6.96374C61.4281 6.06164 61.1094 5.65491 60.472 5.65491C58.9079 5.65491 56.7968 8.11405 56.7968 12.3951V29.3255C56.7968 30.6354 57.2516 31.112 58.3304 31.112ZM67.337 11.4576C68.7489 11.4576 69.9486 10.1842 69.9486 8.55624C69.9486 6.92932 68.7489 5.65491 67.337 5.65491C65.8947 5.65491 64.7255 6.92828 64.7255 8.55624C64.7255 10.1832 65.8795 11.4576 67.337 11.4576ZM66.5465 31.112H68.1105C69.235 31.112 69.6451 30.5822 69.6451 29.3255V15.7032C69.6451 14.4476 69.235 13.9167 68.1105 13.9167H66.5465C65.4229 13.9167 65.0129 14.4476 65.0129 15.7032V29.3255C65.0129 30.5644 65.4229 31.112 66.5465 31.112ZM81.8254 13.2441C79.9113 13.2441 78.0894 14.1472 76.8136 15.7387C76.0535 14.3234 75.0517 13.5799 74.186 13.5799C73.5476 13.5799 73.2289 13.9866 73.2289 14.8897V29.3255C73.2289 30.6354 73.6855 31.112 74.7634 31.112H76.3275C77.4511 31.112 77.8611 30.5822 77.8611 29.3255V22.6384C77.8611 19.9676 79.1978 18.3574 81.1566 18.3574C83.1469 18.3574 84.1944 19.9144 84.1944 22.7094V29.3255C84.1944 30.6354 84.65 31.112 85.728 31.112H87.292C88.3709 31.112 88.8266 30.6354 88.8266 29.3255V22.4434C88.8266 16.8181 86.3663 13.2441 81.8254 13.2441ZM104.165 25.788C105.532 24.6022 106.368 22.8157 106.368 20.7633C106.368 19.9144 106.216 19.1531 105.927 18.4106C107.461 17.5251 108.038 15.9159 108.038 14.3944C108.038 12.8728 107.522 12.4306 106.763 12.8373C104.044 14.288 103.664 14.3599 101.872 13.9876C100.748 13.7582 99.9281 13.5809 98.835 13.5809C96.8152 13.5809 95.1589 14.3234 93.7623 15.6677C92.456 16.9422 91.7873 18.7996 91.7873 20.7633C91.7873 22.8157 92.593 24.6012 93.9897 25.788C92.1678 26.9018 90.892 29.2546 90.892 32.0506C90.892 36.6675 94.081 39.8702 99.0471 39.8702C104.257 39.8702 107.234 36.3317 107.234 31.7148C107.264 28.9188 105.987 26.8309 104.165 25.788ZM99.0776 17.9684C100.763 17.9684 101.796 18.9758 101.796 21.0105C101.796 22.6207 100.642 24.0537 99.0776 24.0537C97.5135 24.0537 96.3899 22.6384 96.3899 21.0105C96.3899 19.0999 97.4526 17.9684 99.0776 17.9684ZM99.0776 35.4296C97.0578 35.4296 95.5537 33.9069 95.5537 31.9619C95.5537 29.8031 96.9665 28.4943 99.0776 28.4943C101.219 28.4943 102.632 29.8031 102.632 31.9619C102.632 33.9434 101.158 35.4296 99.0776 35.4296ZM117.166 31.7846C121.859 31.7846 125.352 27.6443 125.352 22.5143C125.352 17.2602 121.843 13.2441 117.166 13.2441C112.503 13.2441 108.979 17.3843 108.979 22.5154C108.979 27.7684 112.503 31.7846 117.166 31.7846ZM117.166 26.9195C115.055 26.9195 113.657 25.0267 113.657 22.4977C113.657 19.9676 115.04 18.0737 117.166 18.0737C119.307 18.0737 120.674 19.9676 120.674 22.4966C120.674 25.0444 119.307 26.9195 117.166 26.9195Z" fill="white"/>
</g>
</g>
</g>
<defs>
<clipPath id="clip0_4064_4">
<rect width="125.34" height="39.63" fill="white" transform="translate(0.0115356 0.44043)"/>
</clipPath>
<clipPath id="clip1_4064_4">
<rect width="125.34" height="39.63" fill="white" transform="translate(0.0115356 0.44043)"/>
</clipPath>
</defs>
</svg>
