<svg width="171" height="33" viewBox="0 0 171 33" fill="none" xmlns="http://www.w3.org/2000/svg">
<g clip-path="url(#clip0_4064_7)">
<g clip-path="url(#clip1_4064_7)">
<mask id="mask0_4064_7" style="mask-type:luminance" maskUnits="userSpaceOnUse" x="0" y="0" width="171" height="33">
<path d="M0.0117188 0.44043H170.352V32.2404H0.0117188V0.44043Z" fill="white"/>
</mask>
<g mask="url(#mask0_4064_7)">
<path d="M46.1409 6.96779H49.0115V13.7272C50.2038 12.2447 51.7611 11.5433 53.6854 11.5433C56.3119 11.5433 57.8098 12.7647 57.8098 15.1825V23.4767H54.9382V15.8325C54.9382 14.1686 54.2052 13.6748 52.7699 13.6748C51.8831 13.6748 51.0281 14.1172 50.2335 15.001C49.44 15.8849 49.0126 17.0549 49.0126 18.5103V23.4767H46.1409V6.96779ZM72.2909 18.3026H62.454C62.454 20.1489 63.7068 21.5528 65.8751 21.5528C67.4334 21.5528 68.8379 20.8251 69.5105 19.5765L71.9546 20.3827C70.549 22.6966 68.9302 23.7105 65.8751 23.7105C61.3232 23.7105 59.3989 20.4351 59.3989 17.6535C59.3989 14.871 61.2935 11.5956 65.8751 11.5956C70.3039 11.5956 72.2601 14.6634 72.2601 17.2635V18.3026H72.2909ZM62.5452 16.2749H69.2654C69.0215 14.7934 67.8609 13.7272 65.9059 13.7272C64.0728 13.6757 62.8815 14.741 62.5452 16.2749ZM94.7428 11.5423C95.4154 11.5423 96.1176 11.6994 96.8506 12.0109C97.5847 12.3233 98.1034 12.6347 98.4705 13.0248V6.96873H101.341V23.4767H98.4705V22.1252C97.921 22.879 96.3934 23.6852 94.6823 23.6852C90.6195 23.6852 88.4809 21.4499 88.4809 17.6273C88.5424 13.8843 90.6799 11.5442 94.7428 11.5442V11.5423ZM91.536 17.6011C91.536 18.7965 91.8723 19.7589 92.5141 20.4603C93.1548 21.1618 94.0416 21.5004 95.0791 21.5004C96.1176 21.5004 96.9737 21.1356 97.6452 20.4603C98.287 19.7327 98.6233 18.7965 98.6233 17.6002C98.6233 16.4049 98.287 15.4425 97.6452 14.7663C97.0034 14.0386 96.1176 13.7 95.0791 13.7C94.0406 13.7 93.1856 14.0648 92.513 14.7663C91.8712 15.4425 91.5349 16.4311 91.5349 17.6002L91.536 17.6011ZM112.277 13.3895L110.475 14.741C109.833 14.0134 109.008 13.6748 108.061 13.6748C107.297 13.6748 106.687 14.1172 106.687 14.8448C106.687 15.1048 106.839 15.3649 107.053 15.5734C107.542 15.9887 107.97 16.1449 109.161 16.5349C110.107 16.8473 110.535 16.9773 111.299 17.3926C112.399 17.9388 112.919 18.6665 113.041 19.9151C113.055 20.411 112.946 20.904 112.719 21.3611C112.493 21.8183 112.155 22.2292 111.727 22.5666C110.84 23.2943 109.711 23.6329 108.245 23.6329C105.587 23.6329 103.754 22.1766 102.869 20.4865L105.282 19.3689C106.015 20.7989 107.023 21.5013 108.337 21.5013C109.59 21.5013 110.2 21.0066 110.2 19.9674C110.2 19.5503 110.016 19.2903 109.496 19.0303C109.273 18.9028 109.038 18.7902 108.794 18.6936C108.367 18.5364 107.359 18.225 106.931 18.0688C104.946 17.3673 103.938 16.3011 103.938 14.8448C103.925 14.3982 104.028 13.9547 104.239 13.5458C104.45 13.1368 104.765 12.7724 105.16 12.4785C105.953 11.8295 106.962 11.4909 108.215 11.4909C109.863 11.5433 111.391 12.2447 112.277 13.3895ZM121.472 23.659C119.853 23.659 118.448 23.009 117.745 22.1766V28.2345H114.874V11.7266H117.745V13.0519C118.295 12.298 119.822 11.518 121.532 11.518C125.595 11.518 127.734 13.7533 127.734 17.575C127.734 21.3451 125.566 23.659 121.472 23.659ZM124.679 17.6273C124.679 16.4311 124.343 15.4696 123.702 14.7934C123.06 14.0657 122.174 13.7272 121.136 13.7272C120.097 13.7272 119.242 14.0919 118.57 14.7934C117.928 15.4949 117.593 16.4311 117.593 17.6273C117.593 18.8236 117.928 19.7851 118.57 20.4875C119.211 21.1889 120.097 21.5266 121.136 21.5266C122.174 21.5266 123.029 21.1627 123.702 20.4875C124.373 19.7589 124.679 18.7974 124.679 17.6273ZM156.081 20.4351C154.95 22.619 152.965 23.6852 150.093 23.6852C148.015 23.6852 146.366 23.1128 145.236 21.969C144.105 20.7999 143.556 19.3689 143.556 17.6273C143.556 15.8858 144.105 14.4558 145.236 13.3119C146.366 12.1418 147.986 11.5694 150.093 11.5694C152.995 11.5694 154.95 12.6357 156.081 14.8196L153.514 15.7549C152.812 14.4034 151.651 13.7281 150.093 13.7281C147.771 13.7281 146.611 15.2872 146.611 17.6535C146.611 20.0198 147.771 21.579 150.093 21.579C151.681 21.579 152.812 20.9027 153.514 19.5512L156.081 20.4351ZM169.92 18.3026H160.084C160.084 20.1489 161.336 21.5528 163.505 21.5528C164.27 21.5556 165.02 21.3707 165.665 21.0202C166.31 20.6697 166.822 20.1685 167.141 19.5765L169.585 20.3827C168.179 22.6966 166.56 23.7105 163.505 23.7105C158.953 23.7105 157.029 20.4351 157.029 17.6535C157.029 14.871 158.924 11.5956 163.505 11.5956C167.935 11.5956 169.89 14.6634 169.89 17.2635V18.3026H169.92ZM160.175 16.2749H166.896C166.652 14.7934 165.491 13.7272 163.536 13.7272C161.703 13.6757 160.512 14.741 160.175 16.2749ZM80.1694 11.5704C80.8409 11.5704 81.5431 11.7256 82.2772 12.038C83.0102 12.3495 83.53 12.6619 83.896 13.0519V11.7518H86.7676V23.529H84.385L83.896 22.1775C83.3465 22.9314 81.8189 23.7367 80.1078 23.7367C76.045 23.7367 73.9064 21.5013 73.9064 17.6797C73.9064 13.9105 76.0757 11.5704 80.1694 11.5704ZM76.9307 17.6273C76.9307 18.8236 77.267 19.7851 77.9088 20.4875C78.5495 21.1889 79.4364 21.5275 80.4749 21.5275C81.5134 21.5275 82.3684 21.1627 83.041 20.4875C83.6817 19.7589 84.018 18.8226 84.018 17.6273C84.018 16.4311 83.6817 15.4696 83.0399 14.7934C82.3992 14.0657 81.5123 13.7272 80.4749 13.7272C79.4364 13.7272 78.5803 14.0919 77.9088 14.7934C77.267 15.4696 76.9307 16.4311 76.9307 17.6273ZM135.34 11.5704C136.012 11.5704 136.715 11.7256 137.448 12.038C138.181 12.3495 138.7 12.6619 139.067 13.0519V11.7518H141.938V23.529H139.555L139.067 22.1775C138.517 22.9314 136.989 23.7367 135.279 23.7367C131.216 23.7367 129.078 21.5013 129.078 17.6797C129.078 13.9105 131.247 11.5704 135.34 11.5704ZM132.102 17.6273C132.102 18.8236 132.438 19.7851 133.079 20.4875C133.721 21.1889 134.607 21.5275 135.645 21.5275C136.684 21.5275 137.54 21.1627 138.211 20.4875C138.853 19.7589 139.189 18.8226 139.189 17.6273C139.189 16.4311 138.853 15.4696 138.211 14.7934C137.571 14.0657 136.684 13.7272 135.645 13.7272C134.607 13.7272 133.752 14.0919 133.079 14.7934C132.438 15.4696 132.102 16.4311 132.102 17.6273ZM37.2822 16.1196C37.7097 21.1113 34.96 23.9452 33.3105 25.9215C30.7444 28.2093 27.5068 31.3285 19.2283 31.5108C12.2015 31.7447 8.78044 29.1184 5.90883 26.883C2.12179 23.3728 1.14371 21.2937 0.990953 16.1458C0.960182 12.9742 2.4273 9.82792 4.93185 7.04542C8.44415 2.83473 14.0961 1.4056 19.2591 1.09321C24.6957 0.937951 29.0344 3.25187 31.9961 5.74723C35.7238 9.1012 36.9151 11.9856 37.2822 16.1196Z" fill="white"/>
</g>
</g>
</g>
<defs>
<clipPath id="clip0_4064_7">
<rect width="170.34" height="31.8" fill="white" transform="translate(0.0117188 0.44043)"/>
</clipPath>
<clipPath id="clip1_4064_7">
<rect width="170.34" height="31.8" fill="white" transform="translate(0.0117188 0.44043)"/>
</clipPath>
</defs>
</svg>
