<svg width="154" height="35" viewBox="0 0 154 35" fill="none" xmlns="http://www.w3.org/2000/svg">
<g clip-path="url(#clip0_4064_5)">
<g clip-path="url(#clip1_4064_5)">
<path d="M7.09956 1.97644V2.75444H9.94456V17.8834C9.94456 22.4304 8.70856 23.7104 5.95256 23.7104C4.21956 23.7104 3.93356 22.3674 3.93356 21.6714C3.93356 20.0184 3.84356 19.0054 2.36756 19.0054C0.882557 19.0054 0.708557 20.5354 0.708557 21.0024C0.708557 23.0854 1.61656 24.6814 5.67556 24.6814C10.5106 24.6814 13.0956 23.0144 13.0956 17.4824V2.75244L16.0356 2.75644V1.97844H7.09956V1.97644ZM15.9926 21.6794C15.6536 22.0134 15.4666 22.4724 15.4766 22.9494C15.4766 23.4494 15.6476 23.8624 15.9966 24.1934C16.3426 24.5404 16.7556 24.7084 17.2366 24.7084C17.7266 24.7084 18.1396 24.5404 18.4936 24.1934C18.8336 23.8624 19.0076 23.4494 19.0076 22.9494C19.0076 22.4394 18.8336 22.0244 18.4936 21.6794C18.1526 21.3304 17.7416 21.1684 17.2366 21.1684C16.7386 21.1684 16.3266 21.3304 15.9926 21.6794ZM35.8376 21.6794C35.5036 22.0154 35.3216 22.4744 35.3336 22.9494C35.3336 23.4494 35.4976 23.8624 35.8376 24.1934C36.1996 24.5404 36.6006 24.7084 37.0826 24.7084C37.5806 24.7084 37.9966 24.5404 38.3466 24.1934C38.6916 23.8624 38.8626 23.4494 38.8626 22.9494C38.8626 22.4394 38.6916 22.0244 38.3496 21.6794C38.0016 21.3304 37.5846 21.1684 37.0816 21.1684C36.5906 21.1684 36.1766 21.3304 35.8376 21.6794ZM22.1056 1.97844V2.75544H24.6756V20.0114C24.6756 21.3694 24.5936 21.7214 24.4456 22.1134C24.2856 22.5534 23.9266 22.8984 23.3956 23.1244C22.9996 23.2944 22.3996 23.3844 21.6006 23.4064V24.1204H31.0196V23.4134C30.2216 23.3924 29.6126 23.3004 29.2136 23.1554C28.6516 22.9294 28.2866 22.5964 28.1086 22.1444C27.9536 21.7554 27.8736 21.4134 27.8736 20.7314V14.8224L30.2036 14.8114C36.9736 14.8114 38.8766 12.0874 38.8766 8.36944C38.8766 4.61044 37.7076 1.97644 30.8536 1.97644L22.1056 1.97844ZM27.8736 2.85444L29.4926 2.83144C34.7126 2.83144 35.8536 5.02244 35.8536 8.57244C35.8536 12.1454 33.7996 13.9674 29.6596 13.9674H27.8736V2.85444ZM63.3136 2.02844C63.2346 2.23344 56.6796 18.8964 56.6796 18.8964L56.5306 18.9964L56.3726 18.8964C56.3726 18.8964 49.3876 2.23344 49.3066 2.02944H43.1426V2.74144H45.8186V19.8794L45.7606 21.4404C45.7286 21.8224 45.6026 22.1904 45.3936 22.5124C45.1856 22.8314 44.8466 23.0734 44.4056 23.2324C44.1156 23.3294 43.6826 23.3944 43.1426 23.4074V24.1204H49.2606V23.4154C48.7396 23.3944 48.5146 23.3424 48.2096 23.2384C47.7596 23.0884 47.4236 22.8594 47.2006 22.5344C46.9896 22.2054 46.8616 21.8304 46.8276 21.4414L46.7606 19.8794V5.07644H47.1186C47.1186 5.07644 55.0296 23.9134 55.1126 24.1204H55.7726L63.2586 5.28744H63.4476V20.5484C63.4476 21.2024 63.3826 21.7064 63.2586 22.0964C63.1116 22.5544 62.7926 22.8984 62.3296 23.1324C61.9856 23.2874 61.4626 23.3794 60.7736 23.4074V24.1204H69.3086V23.4074C68.6276 23.3724 68.0996 23.2794 67.7416 23.1154C67.2456 22.8694 66.9236 22.5124 66.7836 22.0574C66.6596 21.6574 66.5996 21.1714 66.5996 20.5484V2.75644L68.8686 2.73344V2.02944H63.3136V2.02844ZM70.8526 16.3624C70.8526 24.2494 76.8676 24.7704 78.1646 24.7704C80.7355 24.7704 85.6086 23.1344 85.6086 16.2154C85.6086 10.8314 82.4906 7.90244 78.2676 7.90244C73.7116 7.90244 70.8526 10.9824 70.8526 16.3624ZM74.2546 16.4514C74.2546 12.1274 74.5186 8.88244 78.2066 8.88244C82.1926 8.88244 82.2106 12.2404 82.2106 16.1794C82.2106 21.8394 81.2626 23.7924 78.2066 23.7924C74.7826 23.7924 74.2546 22.0464 74.2546 16.4514ZM93.2006 11.4584L92.9876 11.4504C92.9646 11.4584 92.5946 9.01844 92.4546 8.30044C91.3926 8.30044 87.1816 8.28944 87.1816 8.28944V9.11444H90.0356C90.0356 9.11444 90.0186 11.5864 90.0186 12.4774V20.0464C90.0186 21.1314 89.9006 21.8854 89.6726 22.3444C89.3796 22.8854 88.7266 23.1564 87.6426 23.1564H87.1816V24.1204H96.0186V23.1564H95.5436C94.3826 23.1564 93.8826 22.8984 93.5716 22.3854C93.2896 21.9344 93.1646 21.1684 93.1646 20.0464V14.3704C93.1646 12.4554 94.5776 10.2754 96.2716 10.2754C98.0415 10.2754 97.9996 13.0574 100.006 11.9384C101.096 11.3294 100.912 8.14344 97.5266 8.14344C94.8026 8.14344 93.9526 9.78544 93.2006 11.4584ZM120.795 9.12144C119.786 9.90544 119.393 10.6304 119.393 11.6664C119.393 12.1474 119.519 12.4874 119.786 12.7164C120.051 12.9574 120.364 13.0684 120.748 13.0684C121.626 13.0684 122.119 12.6124 122.302 11.4344C122.437 10.5594 122.623 10.0604 123.046 9.60544C123.496 9.12144 124.203 8.88044 125.154 8.88044C126.263 8.88044 127.047 9.18444 127.488 9.79444C127.89 10.3664 128.104 11.1434 128.104 12.1054V14.7604C125.272 15.0204 118.586 15.5694 118.883 20.7644C118.995 22.7964 120.753 24.5814 123.023 24.5814C125.533 24.5814 127.121 23.1224 128.2 21.9564C128.373 23.0614 129.379 24.3834 131.208 24.3834C133.266 24.3834 134.495 23.3534 134.638 20.7804H134.11C133.971 21.8994 133.293 22.5034 132.734 22.5034C131.788 22.5034 131.488 21.9654 131.418 21.0724L131.362 19.0454V12.4134C131.362 10.9824 131.136 10.0204 130.308 9.17644C129.494 8.33244 127.918 7.90144 125.639 7.90144C123.451 7.90144 121.827 8.31344 120.795 9.12144ZM121.977 20.1554C121.977 17.2074 125.935 15.7334 128.104 15.7334V20.8264L128.051 20.9524L127.985 21.0154C126.47 22.4174 125.314 22.9174 124.468 22.9174C122.302 22.9174 121.977 21.0764 121.977 20.1554ZM140.859 11.1584L140.575 11.1474L140.021 8.27044L135.217 8.26144V9.08744C136.119 9.12544 137.624 9.14244 137.624 9.14244V20.0284C137.624 20.8744 137.559 21.4834 137.436 21.8864C137.308 22.3684 137.001 22.7044 136.549 22.8984C136.257 23.0274 135.8 23.0984 135.217 23.1234V24.1204H142.855V23.1164C142.087 23.0534 141.569 22.8414 141.293 22.4404C140.995 22.0124 140.859 21.2774 140.859 20.2024V16.0204C140.859 14.2714 140.849 12.5824 141.434 11.5374C142.065 10.3974 143.221 9.77044 144.514 9.77044C145.677 9.77044 146.289 10.1504 146.674 10.9034C146.986 11.5154 147.189 13.3394 147.189 14.5944L147.152 19.7754C147.152 20.6384 147.259 21.2774 147.189 21.6864C147.103 22.1634 146.892 22.5354 146.524 22.7814C146.257 22.9704 145.838 23.0674 145.299 23.1074V24.1204H152.662V23.1234C151.73 23.0624 151.12 22.8314 150.854 22.3884C150.551 21.9354 150.301 21.1724 150.301 20.0364L150.343 12.8634C150.343 11.8274 150.207 10.9404 149.825 10.2114C149.463 9.52944 148.905 8.97244 148.223 8.61344C147.537 8.26144 146.752 8.08744 145.89 8.08744C142.784 8.08744 141.538 10.0214 140.859 11.1584ZM116.267 7.26244C115.811 7.41044 115.509 7.82444 115.349 8.52244C115.229 9.16644 114.989 9.53944 114.671 9.64444C114.35 9.73944 113.993 9.71244 113.568 9.56444C112.777 8.81444 111.259 7.90244 108.585 7.90244C104.282 7.90244 102.386 11.0294 102.386 13.8824C102.386 17.2224 103.643 18.8394 106.412 19.4334C106.579 19.4694 106.579 19.6584 106.434 19.6934C104.073 20.1814 101.98 20.8854 101.98 23.1754C101.98 24.5544 102.757 25.3104 103.751 25.7234C104.847 26.1784 106.389 26.4144 108.324 26.4484C110.017 26.4684 111.217 26.5294 111.997 26.6244C112.842 26.7234 113.511 26.9684 114.004 27.3354C114.513 27.7374 114.782 28.3294 114.782 29.1024C114.782 30.1614 114.227 31.0144 113.12 31.6454C112.091 32.2324 110.682 32.5394 108.931 32.5394C107.429 32.5394 106.201 32.3714 105.09 31.6664C104.27 31.1474 104.109 30.1264 104.282 29.3914C104.434 28.6484 104.174 27.8654 103.329 27.7204C102.864 27.6394 102.28 27.8994 102.009 28.3294C101.757 28.7284 101.668 29.2054 101.668 29.7734C101.668 31.6564 103.093 32.5384 104.183 32.8624C105.845 33.3794 106.947 33.5034 108.475 33.5034C110.502 33.5034 112.147 33.1884 113.323 32.5814C114.5 31.9744 115.32 31.2334 115.757 30.3814C116.219 29.5224 116.44 28.6474 116.44 27.8044C116.44 26.6664 116.195 25.7384 115.719 25.0554C114.181 22.8974 111.997 23.1744 107.089 22.9354C104.727 22.9354 104.272 22.5004 104.272 21.7594C104.272 20.6734 105.147 20.2464 108.566 19.7104C111.93 19.1774 115.066 17.9174 115.066 13.7264C115.066 12.5204 114.789 11.4844 114.456 10.7604C115.152 10.9184 115.8 10.9184 116.393 10.7184C117.073 10.5044 117.513 10.1584 117.768 9.67144C118.024 9.18344 118.082 8.72444 117.94 8.27544C117.715 7.54244 117.329 7.17644 116.774 7.17644C116.618 7.17644 116.449 7.20444 116.267 7.26244ZM105.507 13.8824C105.507 10.9394 106.513 8.74844 108.668 8.74844C111.175 8.74844 111.907 10.7444 111.907 13.8214C111.907 18.2234 110.549 18.7994 108.668 18.7994C106.657 18.7994 105.507 18.0534 105.507 13.8824Z" fill="white"/>
</g>
</g>
<defs>
<clipPath id="clip0_4064_5">
<rect width="153" height="34" fill="white" transform="translate(0.67157 0.44043)"/>
</clipPath>
<clipPath id="clip1_4064_5">
<rect width="153" height="34" fill="white" transform="translate(0.67157 0.44043)"/>
</clipPath>
</defs>
</svg>
