<svg width="147" height="39" viewBox="0 0 147 39" fill="none" xmlns="http://www.w3.org/2000/svg">
<g clip-path="url(#clip0_4064_3)">
<path d="M55.3065 14.1742H59.738V29.5425H55.3065V14.1742ZM60.6629 14.1742H64.9312V16.2756H65.0122C66.0463 14.6239 67.3776 13.7246 69.3086 13.7246C72.3536 13.7246 74.1474 16.1254 74.1474 19.547V29.5414H69.7159V20.537C69.7159 18.9162 68.9822 17.807 67.5408 17.807C66.0733 17.807 65.0943 19.1571 65.0943 21.0474V29.5414H60.6629V14.1742ZM60.1807 10.0632C60.1807 9.28482 59.9006 8.53836 59.4019 7.98799C58.9032 7.43761 58.2269 7.12842 57.5217 7.12842C56.8165 7.12842 56.1402 7.43761 55.6416 7.98799C55.1429 8.53836 54.8628 9.28482 54.8628 10.0632C54.8628 10.8415 55.1429 11.588 55.6416 12.1383C56.1402 12.6887 56.8165 12.9979 57.5217 12.9979C58.2269 12.9979 58.9032 12.6887 59.4019 12.1383C59.9006 11.588 60.1807 10.8415 60.1807 10.0632ZM105.313 13.9528C105.166 13.9396 105.019 13.9334 104.872 13.9345C103.187 13.9345 102.044 14.7455 101.065 16.5762H100.984V14.1754H96.7431V29.5425H101.174V22.6395C101.174 19.4404 102.779 17.9584 105.313 18.2165V13.9528ZM127.059 19.8476C125.293 19.4874 123.715 19.3371 123.715 18.2566C123.715 17.2954 124.559 16.8457 125.646 16.8457C126.869 16.8457 127.712 17.2655 127.875 18.6466H131.953C131.736 15.6149 129.615 13.7246 125.673 13.7246C122.384 13.7246 119.665 15.405 119.665 18.6466C119.665 22.2484 122.248 22.9687 124.667 23.4184C126.516 23.7785 128.202 23.9288 128.202 25.3099C128.202 26.2998 127.359 26.84 126.026 26.84C124.69 26.84 123.807 26.216 123.535 24.9497H119.313C119.624 28.1087 122.135 30.022 126.053 30.022C129.697 30.022 132.388 28.2808 132.388 24.9199C132.388 20.9878 129.506 20.2972 127.059 19.8476ZM112.188 17.2059C113.628 17.2059 114.661 18.3759 114.824 20.2078H109.333C109.632 18.3759 110.502 17.2059 112.188 17.2059ZM112.432 26.4799C110.61 26.4799 109.577 25.1894 109.306 23.119H119.31C119.338 19.9967 118.522 17.3263 116.863 15.6448C115.667 14.4449 114.09 13.7246 112.105 13.7246C107.864 13.7246 104.955 17.2357 104.955 21.8285C104.955 26.4799 107.783 29.9922 112.378 29.9922C114.145 29.9922 115.558 29.4817 116.727 28.5813C117.95 27.651 118.766 26.3308 119.065 24.9497H114.743C114.362 25.9098 113.601 26.4799 112.432 26.4799ZM140.193 25.9178C139.987 25.927 139.711 25.9408 139.458 25.9408C138.507 25.9408 137.908 25.6402 137.908 24.4381V17.2346H140.193V14.1742H137.908V9.31184H133.586V14.1742H132.226V17.2357H133.586V25.49C133.586 28.7912 135.435 29.7226 138.017 29.7226C139.003 29.7226 139.748 29.64 140.193 29.5448V25.9178ZM82.0603 25.9247C81.8837 25.9327 81.68 25.9396 81.4887 25.9396C80.5378 25.9396 79.9402 25.6391 79.9402 24.4393V17.2357H82.0603V14.1742H79.9402V9.31184H75.6169V14.1742H74.1754V17.2357H75.6169V25.49C75.6169 28.7912 77.4657 29.7226 80.0483 29.7226C80.9213 29.7226 81.6072 29.6572 82.0603 29.5758V25.9247Z" fill="white"/>
<path d="M91.713 20.2077C91.5488 18.3759 90.5168 17.2059 89.0754 17.2059C87.3897 17.2059 86.5198 18.3759 86.2216 20.2077H91.713ZM81.8442 21.8285C81.8442 17.2357 84.7531 13.7245 88.9943 13.7245C90.9793 13.7245 92.5559 14.4449 93.7521 15.6447C95.4107 17.3263 96.2255 19.9967 96.1985 23.1189H86.1945C86.4658 25.1894 87.4988 26.4798 89.3206 26.4798C90.4898 26.4798 91.2506 25.9097 91.6309 24.9497H95.9543C95.655 26.3296 94.8391 27.651 93.6159 28.5812C92.4468 29.4817 91.0334 29.9921 89.2656 29.9921C84.672 29.9921 81.8442 26.4798 81.8442 21.8285ZM47.6108 18.1671C49.3505 18.1671 50.3295 17.0258 50.3295 15.3155C50.3295 13.6041 49.3235 12.5545 47.6108 12.5545H44.2124V18.1671H47.6108ZM39.7259 8.08216H47.4206C49.786 8.08216 51.5257 8.80251 52.7219 10.0631C53.9732 11.3536 54.6799 13.1843 54.6799 15.3453C54.6799 19.4575 52.0973 22.3688 48.1003 22.3688H44.2114V29.5425H39.7259V8.08216ZM16.912 0.98645C7.66978 0.98645 0.178757 9.25445 0.178757 19.4552C0.178757 27.2805 4.5894 33.9701 10.8136 36.6611C10.667 35.2009 10.535 32.9527 10.8707 31.3571C11.1752 29.9153 12.8328 22.1761 12.8328 22.1761C12.8328 22.1761 12.333 21.0692 12.333 19.4346C12.333 16.8652 13.6809 14.9473 15.3603 14.9473C16.7872 14.9473 17.4773 16.1311 17.4773 17.55C17.4773 19.1341 16.5628 21.5039 16.0909 23.6994C15.6971 25.5381 16.9265 27.0373 18.5685 27.0373C21.5429 27.0373 23.8283 23.5755 23.8283 18.5789C23.8283 14.157 20.9495 11.0645 16.8402 11.0645C12.0794 11.0645 9.28479 15.007 9.28479 19.0802C9.28479 20.6677 9.83872 22.3699 10.5298 23.2956C10.667 23.4791 10.6868 23.6397 10.6462 23.8255C10.5194 24.4082 10.2368 25.6631 10.1817 25.9201C10.1089 26.2584 9.93953 26.3296 9.62152 26.1667C7.53259 25.093 6.22624 21.7207 6.22624 19.0113C6.22624 13.1843 10.0611 7.83324 17.2809 7.83324C23.0842 7.83324 27.5946 12.3997 27.5946 18.5009C27.5946 24.8671 23.9592 29.991 18.9125 29.991C17.2185 29.991 15.6243 29.0183 15.0777 27.8689C15.0777 27.8689 14.24 31.3961 14.0363 32.261C13.658 33.8646 12.6385 35.8765 11.9567 37.1027C13.5612 37.6507 15.2314 37.9283 16.9109 37.9263C26.15 37.9263 33.641 29.656 33.641 19.4552C33.641 9.25445 26.1521 0.98645 16.9109 0.98645H16.912Z" fill="white"/>
</g>
<defs>
<clipPath id="clip0_4064_3">
<rect width="141.34" height="39" fill="white"/>
</clipPath>
</defs>
</svg>
