<svg width="119" height="30" viewBox="0 0 119 30" fill="none" xmlns="http://www.w3.org/2000/svg">
<g clip-path="url(#clip0_4064_6)">
<path d="M1.22955 14.5095V28.3305H6.32055V17.0715L8.27155 17.1385L10.2236 17.2065L13.2146 22.7565L16.1846 28.3075L19.1116 28.3305C20.7046 28.3305 22.0186 28.2855 22.0186 28.2175C22.0186 28.1515 20.6616 25.5895 19.0276 22.5325C17.3736 19.4765 15.9946 16.9145 15.9516 16.8465C15.9086 16.7575 16.4186 16.4205 17.0956 16.0605C18.6456 15.2505 20.2156 13.7005 20.8946 12.3075C21.8266 10.3305 21.8706 6.84648 20.9796 5.00348C20.0456 3.09348 17.8816 1.47448 15.4856 0.936477C14.8056 0.777477 11.8156 0.688477 7.80555 0.688477H1.22955V14.5095ZM14.7416 5.85748C15.9106 6.41848 16.5026 7.42948 16.5026 8.89148C16.5026 10.2395 15.9726 11.2735 14.9756 11.8575C14.3816 12.1945 13.6386 12.2845 10.3086 12.3305L6.32055 12.4195V5.40748H10.0966C13.3416 5.40748 13.9786 5.47548 14.7416 5.85748ZM82.2646 14.7335V28.3295H87.1436V1.13748H82.2646V14.7335ZM109.247 13.8795C109.311 24.3525 109.311 24.3965 109.798 25.4535C110.351 26.6445 111.665 27.9925 112.726 28.4645C113.193 28.6665 114.254 28.7785 115.782 28.7785H118.115V24.2865H116.757C115.718 24.2865 115.294 24.1725 114.848 23.8145L114.297 23.3645V12.8245H118.115V8.55348H114.297V3.38348H109.184L109.247 13.8795Z" fill="white"/>
<path d="M28.5525 8.53143C26.8335 9.13943 25.6675 9.90143 24.4155 11.2944C23.1425 12.7564 22.5485 13.8794 22.1235 15.7904C20.9795 20.9144 23.0795 25.8354 27.3215 27.9694C28.6365 28.6454 28.8065 28.6664 31.4575 28.6664C33.8345 28.6664 34.3855 28.6004 35.4465 28.1274C36.9315 27.4984 38.9035 25.6554 39.6895 24.1274L40.2405 23.0254L38.5435 21.9704C37.6105 21.3864 36.7615 20.9144 36.6765 20.9144C36.5915 20.9144 36.2305 21.3634 35.8495 21.9024C35.0005 23.2064 33.8555 23.9934 32.4545 24.2844C31.2035 24.5324 30.3135 24.3974 29.2315 23.8134C27.9575 23.1394 26.6855 21.3634 26.6855 20.2394C26.6855 19.7894 26.7695 19.7894 33.6855 19.7894H40.6865V17.9034C40.6865 13.5874 38.7985 10.3964 35.2765 8.75543C33.7705 8.03743 30.2705 7.92443 28.5525 8.53143ZM34.2795 12.9134C34.8315 13.3184 35.3615 13.9704 35.7005 14.7124L36.2525 15.8574L31.5435 15.9244C28.9545 15.9484 26.7905 15.9244 26.7275 15.8574C26.4305 15.5434 27.9575 13.5424 29.0185 12.8684C30.1005 12.1714 30.2915 12.1274 31.7975 12.1944C33.1545 12.2624 33.5365 12.3514 34.2795 12.9134ZM67.0125 8.44143C64.2755 9.25143 61.7515 11.3854 60.7115 13.7904C59.9685 15.5434 59.6515 18.2404 59.9685 20.2854C60.7975 25.6114 64.5095 28.7794 69.9395 28.7794C73.1225 28.7794 75.2425 27.9694 77.3005 26.0164C78.4885 24.8694 79.2945 23.4324 79.8255 21.4984C80.2705 19.8574 80.1645 16.1724 79.6345 14.6214C78.7655 12.0824 76.4525 9.72243 73.8435 8.73443C72.2315 8.10443 68.6665 7.96943 67.0125 8.44143ZM72.1885 13.4754C75.1585 14.8694 76.1345 19.0714 74.1405 21.8584C72.7185 23.8354 69.7275 24.5774 67.7125 23.4544C66.6095 22.8234 65.4215 21.4314 65.0815 20.3534C64.6565 19.0034 64.9115 16.5984 65.5705 15.5434C67.0755 13.1374 69.6845 12.3304 72.1885 13.4754ZM40.5355 8.86843C40.5995 9.02543 42.2955 13.4754 44.3115 18.7574L47.9815 28.3524L50.2945 28.2854L52.6065 28.2174L56.1915 18.8914C58.1645 13.7674 59.8405 9.34043 59.9035 9.04843L60.0315 8.53143L57.4425 8.59943L54.8345 8.66643L52.5855 15.0024C51.3545 18.4864 50.2725 21.2734 50.2095 21.1844C50.1245 21.0934 49.0845 18.2174 47.8765 14.7784L45.6695 8.55443H43.0385C40.9175 8.55443 40.4505 8.62143 40.5365 8.86843H40.5355ZM89.6885 14.6884C89.6885 18.1494 89.7945 21.4084 89.9205 22.1504C90.3885 24.8924 91.7665 26.7784 94.1215 27.9694C95.4785 28.6444 95.6275 28.6664 98.3845 28.6664C101.079 28.6664 101.335 28.6224 102.523 28.0374C104.878 26.8694 106.383 24.8244 106.85 22.1504C106.977 21.4084 107.083 18.1494 107.083 14.6884V8.55443H102.225L102.161 14.6664C102.098 20.5314 102.076 20.8464 101.61 21.7454C100.932 23.0934 99.7855 23.6784 98.0675 23.5654C96.5395 23.4764 95.6695 22.9134 95.0765 21.6544C94.7155 20.8914 94.6725 20.1274 94.6085 14.6664L94.5455 8.55443H89.6875L89.6885 14.6884Z" fill="white"/>
</g>
<defs>
<clipPath id="clip0_4064_6">
<rect width="118" height="29" fill="white" transform="translate(0.67157 0.44043)"/>
</clipPath>
</defs>
</svg>
