<svg width="281" height="212" viewBox="0 0 281 212" fill="none" xmlns="http://www.w3.org/2000/svg">
<g clip-path="url(#clip0_4006_52)">
<rect x="0.5" y="0.078186" width="280" height="211" rx="24" fill="#131313"/>
<g clip-path="url(#clip1_4006_52)">
<path d="M31.2682 27.8782C31.1244 27.4382 30.9349 27.044 30.6997 26.6955C30.4688 26.3427 30.1922 26.0421 29.8699 25.7938C29.5519 25.5455 29.1903 25.356 28.7852 25.2253C28.3801 25.0947 27.9358 25.0293 27.4523 25.0293C26.6595 25.0293 25.9385 25.2341 25.2895 25.6435C24.6404 26.053 24.1242 26.6563 23.7409 27.4535C23.3576 28.2506 23.1659 29.2286 23.1659 30.3873C23.1659 31.546 23.3598 32.5239 23.7474 33.3211C24.1351 34.1182 24.66 34.7216 25.3222 35.131C25.9843 35.5405 26.7292 35.7452 27.5568 35.7452C28.3235 35.7452 28.9987 35.5819 29.5824 35.2552C30.1705 34.9241 30.6278 34.458 30.9545 33.8569C31.2856 33.2514 31.4511 32.5392 31.4511 31.7202L31.9477 31.8248H27.9227V30.3873H33.0193V31.8248C33.0193 32.9269 32.7841 33.8852 32.3136 34.6998C31.8475 35.5144 31.2028 36.146 30.3795 36.5947C29.5606 37.039 28.6197 37.2611 27.5568 37.2611C26.372 37.2611 25.3309 36.9824 24.4335 36.4248C23.5405 35.8672 22.8436 35.0744 22.3426 34.0464C21.846 33.0183 21.5977 31.7986 21.5977 30.3873C21.5977 29.3288 21.7393 28.377 22.0224 27.5319C22.3099 26.6824 22.7151 25.9593 23.2378 25.3626C23.7605 24.7658 24.3791 24.3084 25.0935 23.9904C25.8079 23.6724 26.5941 23.5134 27.4523 23.5134C28.158 23.5134 28.8157 23.6201 29.4256 23.8336C30.0398 24.0427 30.5865 24.3411 31.0656 24.7288C31.5491 25.1121 31.9521 25.5717 32.2744 26.1074C32.5968 26.6389 32.8189 27.2291 32.9409 27.8782H31.2682ZM35.0346 37.0782V27.0418H36.5244V28.5577H36.6289C36.8119 28.0611 37.1429 27.6582 37.6221 27.3489C38.1012 27.0396 38.6414 26.885 39.2425 26.885C39.3558 26.885 39.4974 26.8872 39.6673 26.8915C39.8371 26.8959 39.9656 26.9024 40.0528 26.9111V28.4793C40.0005 28.4663 39.8807 28.4467 39.6934 28.4205C39.5104 28.39 39.3166 28.3748 39.1119 28.3748C38.624 28.3748 38.1884 28.4771 37.805 28.6819C37.4261 28.8823 37.1255 29.161 36.9033 29.5182C36.6855 29.8711 36.5766 30.274 36.5766 30.727V37.0782H35.0346ZM45.1015 37.2873C44.1954 37.2873 43.4004 37.0717 42.7165 36.6404C42.037 36.2092 41.5056 35.6058 41.1222 34.8305C40.7432 34.0551 40.5538 33.149 40.5538 32.1123C40.5538 31.0668 40.7432 30.1542 41.1222 29.3745C41.5056 28.5948 42.037 27.9893 42.7165 27.558C43.4004 27.1268 44.1954 26.9111 45.1015 26.9111C46.0075 26.9111 46.8003 27.1268 47.4799 27.558C48.1638 27.9893 48.6952 28.5948 49.0742 29.3745C49.4575 30.1542 49.6492 31.0668 49.6492 32.1123C49.6492 33.149 49.4575 34.0551 49.0742 34.8305C48.6952 35.6058 48.1638 36.2092 47.4799 36.6404C46.8003 37.0717 46.0075 37.2873 45.1015 37.2873ZM45.1015 35.902C45.7897 35.902 46.356 35.7256 46.8003 35.3728C47.2447 35.0199 47.5735 34.556 47.787 33.981C48.0004 33.406 48.1072 32.7831 48.1072 32.1123C48.1072 31.4414 48.0004 30.8163 47.787 30.237C47.5735 29.6576 47.2447 29.1894 46.8003 28.8322C46.356 28.475 45.7897 28.2964 45.1015 28.2964C44.4132 28.2964 43.8469 28.475 43.4026 28.8322C42.9583 29.1894 42.6294 29.6576 42.416 30.237C42.2025 30.8163 42.0958 31.4414 42.0958 32.1123C42.0958 32.7831 42.2025 33.406 42.416 33.981C42.6294 34.556 42.9583 35.0199 43.4026 35.3728C43.8469 35.7256 44.4132 35.902 45.1015 35.902ZM53.3846 37.0782L50.3266 27.0418H51.9471L54.1164 34.7259H54.2209L56.3641 27.0418H58.0107L60.1278 34.6998H60.2323L62.4016 27.0418H64.0221L60.9641 37.0782H59.4482L57.2528 29.368H57.0959L54.9005 37.0782H53.3846ZM69.8745 27.0418V28.3486H64.6733V27.0418H69.8745ZM66.1893 24.6373H67.7313V34.2032C67.7313 34.6388 67.7945 34.9655 67.9208 35.1833C68.0515 35.3967 68.217 35.5405 68.4174 35.6145C68.6221 35.6842 68.8377 35.7191 69.0643 35.7191C69.2341 35.7191 69.3735 35.7104 69.4824 35.693C69.5913 35.6712 69.6785 35.6538 69.7438 35.6407L70.0574 37.0259C69.9529 37.0651 69.807 37.1043 69.6196 37.1435C69.4323 37.1871 69.1949 37.2089 68.9074 37.2089C68.4718 37.2089 68.0449 37.1152 67.6268 36.9279C67.2129 36.7406 66.8688 36.4553 66.5944 36.0719C66.3243 35.6886 66.1893 35.2051 66.1893 34.6214V24.6373ZM73.4008 31.0407V37.0782H71.8587V23.6964H73.4008V28.61H73.5314C73.7667 28.0916 74.1195 27.68 74.59 27.3751C75.0648 27.0658 75.6964 26.9111 76.4848 26.9111C77.1687 26.9111 77.7677 27.0484 78.2817 27.3228C78.7957 27.5929 79.1943 28.0089 79.4775 28.5708C79.765 29.1284 79.9087 29.8384 79.9087 30.7009V37.0782H78.3667V30.8055C78.3667 30.0083 78.1597 29.3919 77.7459 28.9563C77.3365 28.5163 76.768 28.2964 76.0405 28.2964C75.5352 28.2964 75.0822 28.4031 74.6814 28.6165C74.285 28.83 73.9714 29.1414 73.7405 29.5509C73.514 29.9604 73.4008 30.457 73.4008 31.0407Z" fill="#DDFF00"/>
</g>
<path d="M236.307 186.438V179.602H233.754V178.687H239.897V179.602H237.333V186.438H236.307ZM238.944 183.631C238.944 182.591 239.233 181.821 239.811 181.32C240.294 180.904 240.882 180.696 241.577 180.696C242.349 180.696 242.979 180.95 243.469 181.458C243.959 181.962 244.204 182.66 244.204 183.551C244.204 184.274 244.095 184.843 243.877 185.259C243.662 185.672 243.346 185.992 242.93 186.221C242.518 186.451 242.067 186.565 241.577 186.565C240.791 186.565 240.154 186.313 239.668 185.809C239.185 185.305 238.944 184.579 238.944 183.631ZM239.922 183.631C239.922 184.35 240.079 184.889 240.392 185.249C240.706 185.605 241.101 185.783 241.577 185.783C242.049 185.783 242.442 185.603 242.756 185.243C243.069 184.884 243.226 184.336 243.226 183.599C243.226 182.905 243.068 182.379 242.75 182.023C242.437 181.664 242.045 181.484 241.577 181.484C241.101 181.484 240.706 181.662 240.392 182.018C240.079 182.374 239.922 182.912 239.922 183.631ZM248.638 186.438V185.73C248.282 186.287 247.759 186.565 247.068 186.565C246.62 186.565 246.208 186.442 245.831 186.195C245.457 185.948 245.166 185.605 244.958 185.164C244.754 184.72 244.652 184.211 244.652 183.636C244.652 183.076 244.745 182.568 244.932 182.113C245.119 181.655 245.399 181.304 245.772 181.061C246.146 180.818 246.564 180.696 247.025 180.696C247.364 180.696 247.665 180.769 247.93 180.913C248.194 181.054 248.409 181.239 248.575 181.468V178.687H249.521V186.438H248.638ZM245.63 183.636C245.63 184.355 245.781 184.893 246.084 185.249C246.387 185.605 246.745 185.783 247.158 185.783C247.574 185.783 247.926 185.613 248.215 185.275C248.508 184.933 248.654 184.413 248.654 183.715C248.654 182.947 248.506 182.383 248.21 182.023C247.914 181.664 247.549 181.484 247.115 181.484C246.692 181.484 246.338 181.657 246.053 182.002C245.771 182.348 245.63 182.892 245.63 183.636ZM254.357 185.746C254.004 186.045 253.664 186.257 253.336 186.38C253.012 186.503 252.663 186.565 252.289 186.565C251.672 186.565 251.198 186.415 250.867 186.116C250.536 185.813 250.37 185.427 250.37 184.958C250.37 184.683 250.432 184.433 250.555 184.207C250.682 183.978 250.846 183.795 251.047 183.657C251.251 183.52 251.48 183.416 251.734 183.345C251.921 183.296 252.203 183.248 252.58 183.202C253.349 183.111 253.914 183.002 254.277 182.875C254.281 182.744 254.283 182.661 254.283 182.626C254.283 182.238 254.193 181.965 254.013 181.807C253.77 181.592 253.408 181.484 252.929 181.484C252.481 181.484 252.15 181.563 251.935 181.722C251.724 181.877 251.567 182.154 251.465 182.552L250.534 182.425C250.619 182.027 250.758 181.706 250.952 181.463C251.146 181.216 251.426 181.028 251.792 180.897C252.159 180.763 252.584 180.696 253.067 180.696C253.546 180.696 253.935 180.753 254.235 180.865C254.535 180.978 254.755 181.121 254.896 181.294C255.037 181.463 255.136 181.678 255.192 181.939C255.224 182.101 255.24 182.393 255.24 182.816V184.085C255.24 184.97 255.259 185.531 255.298 185.767C255.34 185.999 255.421 186.223 255.541 186.438H254.547C254.448 186.241 254.385 186.01 254.357 185.746ZM254.277 183.62C253.932 183.761 253.414 183.881 252.723 183.98C252.332 184.036 252.055 184.099 251.893 184.17C251.731 184.24 251.605 184.344 251.517 184.482C251.429 184.616 251.385 184.766 251.385 184.931C251.385 185.185 251.48 185.397 251.671 185.566C251.865 185.735 252.147 185.82 252.517 185.82C252.883 185.82 253.209 185.74 253.495 185.582C253.78 185.42 253.99 185.199 254.124 184.921C254.226 184.706 254.277 184.389 254.277 183.969V183.62ZM256.348 188.601L256.242 187.707C256.45 187.763 256.631 187.792 256.786 187.792C256.998 187.792 257.167 187.756 257.294 187.686C257.421 187.615 257.525 187.517 257.606 187.39C257.666 187.295 257.763 187.059 257.897 186.681C257.914 186.629 257.943 186.551 257.981 186.449L255.851 180.823H256.876L258.045 184.075C258.196 184.487 258.332 184.921 258.452 185.375C258.561 184.938 258.692 184.512 258.843 184.096L260.043 180.823H260.995L258.859 186.533C258.63 187.15 258.452 187.575 258.325 187.808C258.156 188.121 257.962 188.35 257.743 188.495C257.525 188.643 257.264 188.717 256.961 188.717C256.778 188.717 256.573 188.678 256.348 188.601Z" fill="white" fill-opacity="0.21"/>
<path d="M121.525 186.438V178.687H122.577L126.648 184.773V178.687H127.631V186.438H126.579L122.508 180.347V186.438H121.525ZM128.554 183.631C128.554 182.591 128.844 181.821 129.422 181.32C129.904 180.904 130.493 180.696 131.188 180.696C131.959 180.696 132.59 180.95 133.08 181.458C133.57 181.962 133.815 182.66 133.815 183.551C133.815 184.274 133.706 184.843 133.487 185.259C133.272 185.672 132.957 185.992 132.541 186.221C132.129 186.451 131.677 186.565 131.188 186.565C130.401 186.565 129.765 186.313 129.279 185.809C128.796 185.305 128.554 184.579 128.554 183.631ZM129.533 183.631C129.533 184.35 129.689 184.889 130.003 185.249C130.317 185.605 130.712 185.783 131.188 185.783C131.66 185.783 132.053 185.603 132.367 185.243C132.68 184.884 132.837 184.336 132.837 183.599C132.837 182.905 132.678 182.379 132.361 182.023C132.048 181.664 131.656 181.484 131.188 181.484C130.712 181.484 130.317 181.662 130.003 182.018C129.689 182.374 129.533 182.912 129.533 183.631ZM136.166 186.438L134.03 180.823H135.034L136.24 184.186C136.37 184.549 136.49 184.926 136.599 185.317C136.684 185.021 136.802 184.665 136.954 184.249L138.201 180.823H139.18L137.054 186.438H136.166ZM139.135 186.438V185.354H140.219V186.438C140.219 186.836 140.148 187.157 140.007 187.4C139.866 187.647 139.643 187.838 139.336 187.971L139.072 187.564C139.272 187.476 139.421 187.346 139.516 187.173C139.611 187.004 139.664 186.759 139.674 186.438H139.135ZM147.574 186.438H146.623V180.374C146.393 180.592 146.092 180.811 145.718 181.029C145.348 181.248 145.015 181.412 144.719 181.521V180.601C145.251 180.351 145.717 180.048 146.115 179.692C146.513 179.336 146.795 178.99 146.961 178.655H147.574V186.438ZM152.468 186.438H151.516V180.374C151.287 180.592 150.986 180.811 150.612 181.029C150.242 181.248 149.909 181.412 149.613 181.521V180.601C150.145 180.351 150.61 180.048 151.009 179.692C151.407 179.336 151.689 178.99 151.855 178.655H152.468V186.438Z" fill="white" fill-opacity="0.21"/>
<path d="M30.3248 186.078V178.327H31.3769L35.4481 184.413V178.327H36.4315V186.078H35.3793L31.3082 179.987V186.078H30.3248ZM37.3545 183.271C37.3545 182.231 37.6436 181.461 38.2216 180.96C38.7045 180.544 39.2932 180.336 39.9876 180.336C40.7595 180.336 41.3904 180.59 41.8804 181.098C42.3703 181.602 42.6153 182.3 42.6153 183.191C42.6153 183.914 42.506 184.483 42.2875 184.899C42.0725 185.312 41.757 185.632 41.3411 185.861C40.9287 186.091 40.4775 186.205 39.9876 186.205C39.2015 186.205 38.5653 185.953 38.0789 185.449C37.596 184.945 37.3545 184.219 37.3545 183.271ZM38.3327 183.271C38.3327 183.99 38.4895 184.529 38.8032 184.889C39.1169 185.245 39.5117 185.423 39.9876 185.423C40.4599 185.423 40.8529 185.243 41.1666 184.883C41.4803 184.524 41.6371 183.976 41.6371 183.239C41.6371 182.545 41.4785 182.019 41.1613 181.663C40.8476 181.304 40.4563 181.124 39.9876 181.124C39.5117 181.124 39.1169 181.302 38.8032 181.658C38.4895 182.014 38.3327 182.552 38.3327 183.271ZM44.9659 186.078L42.8299 180.463H43.8344L45.0399 183.826C45.1703 184.189 45.2901 184.566 45.3994 184.957C45.484 184.661 45.6021 184.305 45.7537 183.889L47.0014 180.463H47.9796L45.8541 186.078H44.9659ZM47.9351 186.078V184.994H49.0189V186.078C49.0189 186.476 48.9484 186.797 48.8074 187.04C48.6665 187.287 48.4426 187.478 48.136 187.611L47.8716 187.204C48.0725 187.116 48.2206 186.986 48.3157 186.813C48.4109 186.644 48.4638 186.399 48.4744 186.078H47.9351ZM56.3743 186.078H55.4226V180.014C55.1935 180.232 54.8921 180.451 54.5185 180.669C54.1484 180.888 53.8153 181.052 53.5192 181.161V180.241C54.0515 179.991 54.5167 179.688 54.915 179.332C55.3133 178.976 55.5953 178.63 55.761 178.295H56.3743V186.078ZM58.487 182.256C58.487 181.339 58.5804 180.602 58.7672 180.046C58.9575 179.485 59.2377 179.053 59.6078 178.75C59.9815 178.447 60.4503 178.295 61.0142 178.295C61.4301 178.295 61.795 178.38 62.1087 178.549C62.4224 178.715 62.6814 178.956 62.8859 179.274C63.0903 179.587 63.2507 179.972 63.367 180.426C63.4833 180.877 63.5415 181.487 63.5415 182.256C63.5415 183.165 63.4481 183.9 63.2613 184.46C63.0745 185.017 62.7942 185.449 62.4206 185.756C62.0505 186.059 61.5817 186.21 61.0142 186.21C60.267 186.21 59.6801 185.942 59.2536 185.407C58.7425 184.762 58.487 183.711 58.487 182.256ZM59.4651 182.256C59.4651 183.528 59.6131 184.376 59.9092 184.799C60.2088 185.218 60.5772 185.428 61.0142 185.428C61.4513 185.428 61.8179 185.216 62.114 184.793C62.4136 184.37 62.5634 183.524 62.5634 182.256C62.5634 180.98 62.4136 180.132 62.114 179.712C61.8179 179.293 61.4478 179.083 61.0037 179.083C60.5666 179.083 60.2176 179.268 59.9568 179.638C59.629 180.111 59.4651 180.983 59.4651 182.256Z" fill="white" fill-opacity="0.21"/>
<rect width="2" height="119" transform="translate(23.5 69.0782)" fill="#BDFF1C" fill-opacity="0.1"/>
<rect width="2" height="119" transform="translate(115.5 69.0782)" fill="#BDFF1C" fill-opacity="0.1"/>
<rect width="2" height="119" transform="translate(224.5 69.0782)" fill="#BDFF1C" fill-opacity="0.1"/>
<g filter="url(#filter0_f_4006_52)">
<rect x="130.5" y="31.1682" width="146" height="153.04" rx="73" fill="#E2FA06" fill-opacity="0.08"/>
</g>
<rect x="20.5" y="119.078" width="9" height="22" rx="4.5" fill="url(#paint0_linear_4006_52)"/>
<rect x="39.5" y="125.078" width="9" height="22" rx="4.5" fill="url(#paint1_linear_4006_52)"/>
<rect x="57.5" y="105.078" width="9" height="43" rx="4.5" fill="url(#paint2_linear_4006_52)"/>
<rect x="75.5" y="99.0782" width="9" height="49" rx="4.5" fill="url(#paint3_linear_4006_52)"/>
<rect x="94.5" y="102.078" width="9" height="29" rx="4.5" fill="url(#paint4_linear_4006_52)"/>
<rect x="112.5" y="88.0782" width="9" height="53" rx="4.5" fill="url(#paint5_linear_4006_52)"/>
<rect x="131" y="108.078" width="9" height="40" rx="4.5" fill="url(#paint6_linear_4006_52)"/>
<rect x="149" y="118.078" width="9" height="48" rx="4.5" fill="url(#paint7_linear_4006_52)"/>
<rect x="168.5" y="102.078" width="9" height="56" rx="4.5" fill="url(#paint8_linear_4006_52)"/>
<rect x="185.5" y="63.0782" width="9" height="78" rx="4.5" fill="url(#paint9_linear_4006_52)"/>
<rect x="203.5" y="75.0782" width="9" height="40" rx="4.5" fill="url(#paint10_linear_4006_52)"/>
<rect x="221.5" y="82.0782" width="9" height="36" rx="4.5" fill="url(#paint11_linear_4006_52)"/>
<rect x="239.5" y="102.078" width="9" height="32" rx="4.5" fill="url(#paint12_linear_4006_52)"/>
<rect x="1" y="0.578186" width="279" height="210" rx="23.5" stroke="white" stroke-opacity="0.06"/>
</g>
<defs>
<filter id="filter0_f_4006_52" x="99.3889" y="0.0571136" width="208.222" height="215.262" filterUnits="userSpaceOnUse" color-interpolation-filters="sRGB">
<feFlood flood-opacity="0" result="BackgroundImageFix"/>
<feBlend mode="normal" in="SourceGraphic" in2="BackgroundImageFix" result="shape"/>
<feGaussianBlur stdDeviation="15.5555" result="effect1_foregroundBlur_4006_52"/>
</filter>
<linearGradient id="paint0_linear_4006_52" x1="25" y1="119.078" x2="25" y2="141.078" gradientUnits="userSpaceOnUse">
<stop stop-color="#67E483"/>
<stop offset="1" stop-color="#8FF053"/>
</linearGradient>
<linearGradient id="paint1_linear_4006_52" x1="44" y1="125.078" x2="44" y2="147.078" gradientUnits="userSpaceOnUse">
<stop stop-color="#67E483"/>
<stop offset="1" stop-color="#8FF053"/>
</linearGradient>
<linearGradient id="paint2_linear_4006_52" x1="62" y1="105.078" x2="62" y2="148.078" gradientUnits="userSpaceOnUse">
<stop stop-color="#67E483"/>
<stop offset="1" stop-color="#8FF053"/>
</linearGradient>
<linearGradient id="paint3_linear_4006_52" x1="80" y1="99.0782" x2="80" y2="148.078" gradientUnits="userSpaceOnUse">
<stop stop-color="#67E483"/>
<stop offset="1" stop-color="#8FF053"/>
</linearGradient>
<linearGradient id="paint4_linear_4006_52" x1="99" y1="102.078" x2="99" y2="131.078" gradientUnits="userSpaceOnUse">
<stop stop-color="#67E483"/>
<stop offset="1" stop-color="#8FF053"/>
</linearGradient>
<linearGradient id="paint5_linear_4006_52" x1="117" y1="88.0782" x2="117" y2="141.078" gradientUnits="userSpaceOnUse">
<stop stop-color="#67E483"/>
<stop offset="1" stop-color="#8FF053"/>
</linearGradient>
<linearGradient id="paint6_linear_4006_52" x1="135.5" y1="108.078" x2="135.5" y2="148.078" gradientUnits="userSpaceOnUse">
<stop stop-color="#67E483"/>
<stop offset="1" stop-color="#8FF053"/>
</linearGradient>
<linearGradient id="paint7_linear_4006_52" x1="153.5" y1="118.078" x2="153.5" y2="166.078" gradientUnits="userSpaceOnUse">
<stop stop-color="#67E483"/>
<stop offset="1" stop-color="#8FF053"/>
</linearGradient>
<linearGradient id="paint8_linear_4006_52" x1="173" y1="102.078" x2="173" y2="158.078" gradientUnits="userSpaceOnUse">
<stop stop-color="#67E483"/>
<stop offset="1" stop-color="#8FF053"/>
</linearGradient>
<linearGradient id="paint9_linear_4006_52" x1="190" y1="63.0782" x2="190" y2="141.078" gradientUnits="userSpaceOnUse">
<stop stop-color="#67E483"/>
<stop offset="1" stop-color="#8FF053"/>
</linearGradient>
<linearGradient id="paint10_linear_4006_52" x1="208" y1="75.0782" x2="208" y2="115.078" gradientUnits="userSpaceOnUse">
<stop stop-color="#67E483"/>
<stop offset="1" stop-color="#8FF053"/>
</linearGradient>
<linearGradient id="paint11_linear_4006_52" x1="226" y1="82.0782" x2="226" y2="118.078" gradientUnits="userSpaceOnUse">
<stop stop-color="#67E483"/>
<stop offset="1" stop-color="#8FF053"/>
</linearGradient>
<linearGradient id="paint12_linear_4006_52" x1="244" y1="102.078" x2="244" y2="134.078" gradientUnits="userSpaceOnUse">
<stop stop-color="#67E483"/>
<stop offset="1" stop-color="#8FF053"/>
</linearGradient>
<clipPath id="clip0_4006_52">
<rect x="0.5" y="0.078186" width="280" height="211" rx="24" fill="white"/>
</clipPath>
<clipPath id="clip1_4006_52">
<rect width="61.72" height="21.13" fill="white" transform="translate(20.5 20.0782)"/>
</clipPath>
</defs>
</svg>
