<svg width="324" height="195" viewBox="0 0 324 195" fill="none" xmlns="http://www.w3.org/2000/svg">
<g clip-path="url(#clip0_4006_86)">
<rect x="29" y="0.078186" width="247" height="76" rx="24" fill="#131313"/>
<rect x="29.5" y="0.578186" width="246" height="75" rx="23.5" stroke="#292929"/>
<g clip-path="url(#clip1_4006_86)">
<g clip-path="url(#clip2_4006_86)">
<path d="M97.233 12.8887H59.9153C50.0716 12.8887 42.0918 20.8686 42.0918 30.7122V45.7506C42.0918 55.5943 50.0716 63.5741 59.9153 63.5741H97.233C107.077 63.5741 115.056 55.5943 115.056 45.7506V30.7122C115.056 20.8686 107.077 12.8887 97.233 12.8887Z" fill="black" fill-opacity="0.89"/>
<mask id="mask0_4006_86" style="mask-type:luminance" maskUnits="userSpaceOnUse" x="65" y="25" width="27" height="27">
<path d="M91.6926 25.3253H65.6309V51.387H91.6926V25.3253Z" fill="white"/>
</mask>
<g mask="url(#mask0_4006_86)">
<g opacity="0.4">
<path d="M88.435 30.2119V35.0985C88.435 35.3145 88.3492 35.5217 88.1964 35.6744C88.0437 35.8271 87.8366 35.9129 87.6206 35.9129H82.734C82.5728 35.9131 82.4152 35.8654 82.2812 35.7759C82.1471 35.6864 82.0426 35.5592 81.9809 35.4103C81.9192 35.2614 81.9031 35.0975 81.9346 34.9395C81.9661 34.7814 82.0437 34.6362 82.1578 34.5223L84.2529 32.4272C82.9294 31.3165 81.0206 30.2119 78.6618 30.2119C74.9694 30.2119 72.744 32.3946 72.7226 32.417C72.5698 32.5698 72.3625 32.6557 72.1464 32.6557C71.9303 32.6557 71.723 32.5698 71.5702 32.417C71.4174 32.2642 71.3315 32.0569 71.3315 31.8408C71.3315 31.6247 71.4174 31.4174 71.5702 31.2646C71.6801 31.1557 74.3026 28.5831 78.6618 28.5831C81.04 28.5831 83.358 29.5095 85.4094 31.2717L87.0443 29.6357C87.1582 29.5217 87.3034 29.444 87.4615 29.4126C87.6196 29.3811 87.7834 29.3972 87.9323 29.4589C88.0812 29.5206 88.2084 29.6251 88.2979 29.7591C88.3874 29.8932 88.4351 30.0508 88.435 30.2119ZM84.6011 44.2955C84.5797 44.3179 82.3542 46.5005 78.6618 46.5005C76.303 46.5005 74.3942 45.396 73.0708 44.2853L75.1659 42.1902C75.2799 42.0763 75.3576 41.9311 75.3891 41.773C75.4205 41.615 75.4044 41.4511 75.3427 41.3022C75.281 41.1533 75.1765 41.0261 75.0425 40.9366C74.9084 40.8471 74.7509 40.7994 74.5897 40.7995H69.7031C69.4871 40.7995 69.2799 40.8853 69.1272 41.0381C68.9745 41.1908 68.8887 41.398 68.8887 41.614V46.5005C68.8885 46.6617 68.9362 46.8193 69.0257 46.9533C69.1152 47.0874 69.2424 47.1919 69.3913 47.2536C69.5402 47.3153 69.7041 47.3314 69.8622 47.2999C70.0202 47.2684 70.1654 47.1908 70.2793 47.0767L71.9143 45.4408C73.9656 47.203 76.2837 48.1294 78.6618 48.1294C83.0211 48.1294 85.6435 45.5568 85.7535 45.4479C85.9063 45.2951 85.9921 45.0878 85.9921 44.8717C85.9921 44.6556 85.9063 44.4483 85.7535 44.2955C85.6007 44.1426 85.3934 44.0568 85.1773 44.0568C84.9611 44.0568 84.7539 44.1426 84.6011 44.2955Z" fill="white"/>
</g>
</g>
</g>
</g>
<rect x="130" y="15.6482" width="7" height="7" rx="3.5" fill="white" fill-opacity="0.4"/>
<path d="M140.637 22.0782V16.28H143.208C143.724 16.28 144.117 16.3328 144.386 16.4382C144.655 16.5411 144.87 16.7243 145.031 16.988C145.192 17.2517 145.272 17.543 145.272 17.8621C145.272 18.2734 145.139 18.6201 144.873 18.9023C144.606 19.1844 144.195 19.3637 143.639 19.4401C143.842 19.5377 143.996 19.6339 144.101 19.7289C144.326 19.9345 144.538 20.1916 144.738 20.5001L145.747 22.0782H144.782L144.014 20.8719C143.79 20.5238 143.606 20.2575 143.461 20.073C143.316 19.8884 143.185 19.7592 143.069 19.6854C142.956 19.6115 142.84 19.5601 142.721 19.5311C142.634 19.5127 142.492 19.5034 142.294 19.5034H141.404V22.0782H140.637ZM141.404 18.839H143.053C143.404 18.839 143.678 18.8034 143.876 18.7322C144.074 18.6584 144.224 18.5423 144.327 18.3841C144.43 18.2233 144.481 18.0493 144.481 17.8621C144.481 17.5879 144.381 17.3624 144.181 17.1858C143.983 17.0091 143.669 16.9208 143.239 16.9208H141.404V18.839ZM146.982 22.0782V16.28H151.175V16.9643H147.75V18.7401H150.957V19.4204H147.75V21.394H151.309V22.0782H146.982ZM154.514 22.0782L152.268 16.28H153.098L154.605 20.4922C154.726 20.8297 154.828 21.1461 154.91 21.4414C154.999 21.125 155.104 20.8086 155.222 20.4922L156.788 16.28H157.572L155.301 22.0782H154.514ZM158.878 22.0782V16.28H159.645V22.0782H158.878ZM161.506 22.0782V16.28H165.698V16.9643H162.273V18.7401H165.481V19.4204H162.273V21.394H165.833V22.0782H161.506ZM168.393 22.0782L166.855 16.28H167.642L168.524 20.0809C168.619 20.479 168.7 20.8745 168.769 21.2674C168.917 20.6478 169.004 20.2905 169.03 20.1956L170.133 16.28H171.059L171.89 19.2147C172.098 19.9424 172.248 20.6267 172.34 21.2674C172.414 20.9009 172.51 20.4803 172.629 20.0057L173.539 16.28H174.31L172.72 22.0782H171.98L170.758 17.6604C170.656 17.2912 170.595 17.0645 170.576 16.9801C170.516 17.2464 170.459 17.4732 170.406 17.6604L169.176 22.0782H168.393ZM175.534 22.0782V16.28H179.726V16.9643H176.301V18.7401H179.509V19.4204H176.301V21.394H179.861V22.0782H175.534ZM181.408 22.0782V16.28H183.406C183.857 16.28 184.201 16.3077 184.438 16.3631C184.77 16.4396 185.054 16.578 185.288 16.7784C185.594 17.0368 185.822 17.3677 185.973 17.7711C186.126 18.1719 186.202 18.6307 186.202 19.1475C186.202 19.5878 186.151 19.978 186.048 20.3182C185.945 20.6583 185.813 20.9404 185.652 21.1646C185.491 21.386 185.315 21.5614 185.122 21.6906C184.932 21.8172 184.702 21.9134 184.43 21.9793C184.161 22.0452 183.851 22.0782 183.501 22.0782H181.408ZM182.176 21.394H183.414C183.796 21.394 184.095 21.3584 184.312 21.2872C184.53 21.216 184.704 21.1158 184.834 20.9866C185.016 20.8047 185.157 20.5608 185.257 20.2549C185.36 19.9464 185.411 19.5733 185.411 19.1356C185.411 18.5292 185.311 18.0638 185.11 17.7395C184.913 17.4125 184.671 17.1937 184.387 17.0829C184.181 17.0038 183.85 16.9643 183.394 16.9643H182.176V21.394Z" fill="white" fill-opacity="0.4"/>
<rect x="128" y="31.0782" width="100" height="10" rx="5" fill="#D9D9D9" fill-opacity="0.09"/>
<rect x="128" y="49.0782" width="51" height="10" rx="5" fill="#D9D9D9" fill-opacity="0.09"/>
<rect x="0.169922" y="28.0782" width="304" height="94" rx="30" fill="#131313"/>
<rect x="0.669922" y="28.5782" width="303" height="93" rx="29.5" stroke="#292929"/>
<path d="M122.671 79.0782V64.4039H124.613V77.3465H131.84V79.0782H122.671ZM140.664 77.7669C139.997 78.3341 139.353 78.7345 138.732 78.9681C138.118 79.2016 137.458 79.3184 136.75 79.3184C135.583 79.3184 134.685 79.0348 134.058 78.4676C133.43 77.8937 133.117 77.163 133.117 76.2755C133.117 75.7549 133.234 75.2811 133.467 74.8541C133.707 74.4203 134.018 74.0733 134.398 73.813C134.785 73.5528 135.219 73.3559 135.699 73.2225C136.053 73.129 136.587 73.039 137.301 72.9522C138.756 72.7787 139.827 72.5718 140.514 72.3316C140.521 72.0847 140.524 71.9279 140.524 71.8611C140.524 71.1271 140.354 70.6099 140.014 70.3096C139.553 69.9026 138.869 69.699 137.962 69.699C137.114 69.699 136.487 69.8492 136.08 70.1495C135.679 70.4431 135.382 70.9669 135.189 71.721L133.427 71.4808C133.587 70.7267 133.851 70.1194 134.218 69.659C134.585 69.1919 135.115 68.8349 135.809 68.588C136.503 68.3344 137.308 68.2076 138.222 68.2076C139.129 68.2076 139.867 68.3144 140.434 68.5279C141.001 68.7414 141.418 69.0117 141.685 69.3387C141.952 69.659 142.139 70.0661 142.246 70.5599C142.306 70.8668 142.336 71.4207 142.336 72.2215V74.6238C142.336 76.2988 142.372 77.3598 142.446 77.8069C142.526 78.2474 142.679 78.6711 142.906 79.0782H141.024C140.838 78.7045 140.718 78.2674 140.664 77.7669ZM140.514 73.743C139.86 74.0099 138.879 74.2368 137.571 74.4236C136.83 74.5304 136.307 74.6505 136 74.784C135.693 74.9175 135.456 75.1143 135.289 75.3746C135.122 75.6282 135.039 75.9118 135.039 76.2254C135.039 76.7059 135.219 77.1063 135.579 77.4266C135.946 77.7469 136.48 77.907 137.181 77.907C137.875 77.907 138.492 77.7569 139.033 77.4566C139.573 77.1496 139.97 76.7326 140.224 76.2054C140.417 75.7983 140.514 75.1977 140.514 74.4036V73.743ZM148.867 77.4666L149.128 79.0582C148.62 79.1649 148.167 79.2183 147.766 79.2183C147.112 79.2183 146.605 79.1149 146.245 78.908C145.884 78.7012 145.631 78.4309 145.484 78.0972C145.337 77.7569 145.264 77.0462 145.264 75.9651V69.8492H143.943V68.4478H145.264V65.8152L147.056 64.7342V68.4478H148.867V69.8492H147.056V76.0652C147.056 76.5791 147.086 76.9094 147.146 77.0562C147.212 77.203 147.316 77.3198 147.456 77.4066C147.603 77.4933 147.81 77.5367 148.077 77.5367C148.277 77.5367 148.54 77.5133 148.867 77.4666ZM157.711 75.6548L159.573 75.8851C159.279 76.9728 158.736 77.817 157.941 78.4175C157.147 79.0181 156.133 79.3184 154.898 79.3184C153.344 79.3184 152.109 78.8413 151.195 77.887C150.287 76.9261 149.833 75.5814 149.833 73.8531C149.833 72.0647 150.294 70.6767 151.215 69.689C152.136 68.7014 153.33 68.2076 154.798 68.2076C156.22 68.2076 157.381 68.6914 158.282 69.659C159.183 70.6266 159.633 71.9879 159.633 73.743C159.633 73.8498 159.63 74.0099 159.623 74.2234H151.695C151.762 75.3913 152.092 76.2855 152.686 76.9061C153.28 77.5267 154.021 77.837 154.908 77.837C155.569 77.837 156.133 77.6635 156.6 77.3165C157.067 76.9695 157.438 76.4156 157.711 75.6548ZM151.795 72.742H157.731C157.651 71.8478 157.424 71.1771 157.051 70.73C156.477 70.036 155.733 69.689 154.818 69.689C153.991 69.689 153.294 69.966 152.726 70.5198C152.166 71.0737 151.855 71.8144 151.795 72.742ZM160.92 75.9051L162.701 75.6248C162.801 76.3388 163.078 76.886 163.532 77.2664C163.993 77.6468 164.633 77.837 165.454 77.837C166.281 77.837 166.895 77.6701 167.296 77.3365C167.696 76.9962 167.896 76.5991 167.896 76.1453C167.896 75.7383 167.719 75.4179 167.366 75.1844C167.119 75.0242 166.505 74.8207 165.524 74.5738C164.203 74.2401 163.285 73.9532 162.771 73.713C162.264 73.466 161.877 73.129 161.61 72.702C161.35 72.2682 161.22 71.7911 161.22 71.2706C161.22 70.7968 161.327 70.3597 161.54 69.9593C161.76 69.5522 162.057 69.2152 162.431 68.9483C162.711 68.7414 163.092 68.5679 163.572 68.4278C164.059 68.281 164.58 68.2076 165.134 68.2076C165.968 68.2076 166.698 68.3277 167.326 68.5679C167.96 68.8082 168.427 69.1352 168.727 69.5489C169.027 69.956 169.234 70.5032 169.348 71.1905L167.586 71.4307C167.506 70.8835 167.272 70.4564 166.885 70.1495C166.505 69.8425 165.964 69.689 165.264 69.689C164.436 69.689 163.846 69.8258 163.492 70.0994C163.138 70.373 162.961 70.6933 162.961 71.0604C162.961 71.2939 163.035 71.5041 163.182 71.691C163.329 71.8845 163.559 72.0447 163.872 72.1714C164.053 72.2382 164.583 72.3917 165.464 72.6319C166.739 72.9722 167.626 73.2525 168.127 73.4727C168.634 73.6863 169.031 73.9999 169.318 74.4136C169.605 74.8274 169.748 75.3412 169.748 75.9551C169.748 76.5557 169.571 77.1229 169.218 77.6568C168.871 78.184 168.367 78.5944 167.706 78.888C167.045 79.1749 166.298 79.3184 165.464 79.3184C164.083 79.3184 163.028 79.0315 162.301 78.4576C161.58 77.8837 161.12 77.0329 160.92 75.9051ZM175.619 77.4666L175.879 79.0582C175.372 79.1649 174.918 79.2183 174.518 79.2183C173.864 79.2183 173.357 79.1149 172.996 78.908C172.636 78.7012 172.383 78.4309 172.236 78.0972C172.089 77.7569 172.016 77.0462 172.016 75.9651V69.8492H170.694V68.4478H172.016V65.8152L173.807 64.7342V68.4478H175.619V69.8492H173.807V76.0652C173.807 76.5791 173.837 76.9094 173.897 77.0562C173.964 77.203 174.068 77.3198 174.208 77.4066C174.354 77.4933 174.561 77.5367 174.828 77.5367C175.028 77.5367 175.292 77.5133 175.619 77.4666ZM189.583 79.0782V77.7369C188.909 78.7912 187.918 79.3184 186.61 79.3184C185.763 79.3184 184.982 79.0849 184.268 78.6177C183.561 78.1506 183.01 77.5 182.616 76.6658C182.229 75.825 182.036 74.8607 182.036 73.773C182.036 72.712 182.213 71.751 182.566 70.8902C182.92 70.0227 183.45 69.3587 184.158 68.8983C184.865 68.4378 185.656 68.2076 186.53 68.2076C187.171 68.2076 187.741 68.3444 188.242 68.618C188.742 68.8849 189.149 69.2352 189.463 69.669V64.4039H191.255V79.0782H189.583ZM183.888 73.773C183.888 75.1343 184.174 76.152 184.748 76.826C185.322 77.5 186 77.837 186.78 77.837C187.568 77.837 188.235 77.5167 188.782 76.876C189.336 76.2287 189.613 75.2444 189.613 73.9232C189.613 72.4684 189.333 71.4007 188.772 70.72C188.212 70.0394 187.521 69.699 186.7 69.699C185.899 69.699 185.229 70.026 184.688 70.68C184.154 71.334 183.888 72.365 183.888 73.773ZM201.17 75.6548L203.031 75.8851C202.738 76.9728 202.194 77.817 201.4 78.4175C200.606 79.0181 199.591 79.3184 198.357 79.3184C196.802 79.3184 195.567 78.8413 194.653 77.887C193.746 76.9261 193.292 75.5814 193.292 73.8531C193.292 72.0647 193.752 70.6767 194.673 69.689C195.594 68.7014 196.789 68.2076 198.257 68.2076C199.678 68.2076 200.839 68.6914 201.74 69.659C202.641 70.6266 203.091 71.9879 203.091 73.743C203.091 73.8498 203.088 74.0099 203.081 74.2234H195.154C195.22 75.3913 195.551 76.2855 196.145 76.9061C196.739 77.5267 197.479 77.837 198.367 77.837C199.027 77.837 199.591 77.6635 200.058 77.3165C200.526 76.9695 200.896 76.4156 201.17 75.6548ZM195.254 72.742H201.19C201.11 71.8478 200.883 71.1771 200.509 70.73C199.935 70.036 199.191 69.689 198.277 69.689C197.449 69.689 196.752 69.966 196.185 70.5198C195.624 71.0737 195.314 71.8144 195.254 72.742ZM204.378 75.9051L206.16 75.6248C206.26 76.3388 206.537 76.886 206.99 77.2664C207.451 77.6468 208.092 77.837 208.912 77.837C209.74 77.837 210.354 77.6701 210.754 77.3365C211.155 76.9962 211.355 76.5991 211.355 76.1453C211.355 75.7383 211.178 75.4179 210.824 75.1844C210.577 75.0242 209.963 74.8207 208.982 74.5738C207.661 74.2401 206.744 73.9532 206.23 73.713C205.723 73.466 205.336 73.129 205.069 72.702C204.808 72.2682 204.678 71.7911 204.678 71.2706C204.678 70.7968 204.785 70.3597 204.999 69.9593C205.219 69.5522 205.516 69.2152 205.889 68.9483C206.17 68.7414 206.55 68.5679 207.03 68.4278C207.518 68.281 208.038 68.2076 208.592 68.2076C209.426 68.2076 210.157 68.3277 210.784 68.5679C211.418 68.8082 211.885 69.1352 212.186 69.5489C212.486 69.956 212.693 70.5032 212.806 71.1905L211.044 71.4307C210.964 70.8835 210.731 70.4564 210.344 70.1495C209.963 69.8425 209.423 69.689 208.722 69.689C207.895 69.689 207.304 69.8258 206.95 70.0994C206.597 70.373 206.42 70.6933 206.42 71.0604C206.42 71.2939 206.493 71.5041 206.64 71.691C206.787 71.8845 207.017 72.0447 207.331 72.1714C207.511 72.2382 208.041 72.3917 208.922 72.6319C210.197 72.9722 211.084 73.2525 211.585 73.4727C212.092 73.6863 212.489 73.9999 212.776 74.4136C213.063 74.8274 213.207 75.3412 213.207 75.9551C213.207 76.5557 213.03 77.1229 212.676 77.6568C212.329 78.184 211.825 78.5944 211.165 78.888C210.504 79.1749 209.756 79.3184 208.922 79.3184C207.541 79.3184 206.487 79.0315 205.759 78.4576C205.039 77.8837 204.578 77.0329 204.378 75.9051ZM215.154 66.4759V64.4039H216.955V66.4759H215.154ZM215.154 79.0782V68.4478H216.955V79.0782H215.154ZM219.173 79.959L220.924 80.2193C220.998 80.7598 221.201 81.1535 221.535 81.4005C221.982 81.7341 222.593 81.9009 223.367 81.9009C224.201 81.9009 224.845 81.7341 225.299 81.4005C225.752 81.0668 226.059 80.5997 226.22 79.9991C226.313 79.6321 226.356 78.8613 226.35 77.6868C225.562 78.6144 224.581 79.0782 223.407 79.0782C221.945 79.0782 220.814 78.551 220.014 77.4966C219.213 76.4423 218.812 75.1777 218.812 73.7029C218.812 72.6886 218.996 71.7544 219.363 70.9002C219.73 70.0394 220.26 69.3754 220.954 68.9083C221.655 68.4411 222.476 68.2076 223.417 68.2076C224.671 68.2076 225.706 68.7147 226.52 69.7291V68.4478H228.182V77.6368C228.182 79.2917 228.011 80.4629 227.671 81.1502C227.337 81.8442 226.804 82.3914 226.069 82.7918C225.342 83.1922 224.445 83.3924 223.377 83.3924C222.109 83.3924 221.085 83.1054 220.304 82.5316C219.523 81.9643 219.146 81.1068 219.173 79.959ZM220.664 73.5728C220.664 74.9675 220.941 75.9852 221.495 76.6258C222.049 77.2664 222.743 77.5867 223.577 77.5867C224.405 77.5867 225.099 77.2698 225.659 76.6358C226.22 75.9952 226.5 74.9942 226.5 73.6329C226.5 72.3316 226.21 71.3506 225.629 70.69C225.055 70.0294 224.361 69.699 223.547 69.699C222.746 69.699 222.066 70.026 221.505 70.68C220.944 71.3273 220.664 72.2916 220.664 73.5728ZM230.709 79.0782V68.4478H232.331V69.9593C233.112 68.7915 234.239 68.2076 235.714 68.2076C236.355 68.2076 236.942 68.3244 237.476 68.5579C238.016 68.7848 238.42 69.0851 238.687 69.4588C238.954 69.8325 239.141 70.2763 239.248 70.7901C239.314 71.1238 239.348 71.7077 239.348 72.5418V79.0782H237.546V72.6119C237.546 71.8778 237.476 71.3306 237.336 70.9703C237.196 70.6033 236.945 70.313 236.585 70.0994C236.231 69.8792 235.814 69.7691 235.334 69.7691C234.566 69.7691 233.902 70.0127 233.342 70.4998C232.788 70.987 232.511 71.9112 232.511 73.2725V79.0782H230.709Z" fill="white"/>
<path d="M124.771 101.078V92.3084H121.495V91.135H129.377V92.3084H126.087V101.078H124.771ZM128.156 97.4767C128.156 96.1428 128.527 95.1548 129.269 94.5127C129.888 93.9791 130.643 93.7124 131.534 93.7124C132.524 93.7124 133.334 94.0379 133.962 94.689C134.591 95.3356 134.905 96.2309 134.905 97.3749C134.905 98.3019 134.765 99.0321 134.485 99.5657C134.209 100.095 133.804 100.506 133.27 100.8C132.741 101.094 132.163 101.241 131.534 101.241C130.526 101.241 129.71 100.918 129.086 100.271C128.466 99.6245 128.156 98.693 128.156 97.4767ZM129.411 97.4767C129.411 98.3991 129.612 99.0909 130.015 99.5521C130.417 100.009 130.924 100.237 131.534 100.237C132.14 100.237 132.644 100.007 133.047 99.5453C133.449 99.0841 133.65 98.381 133.65 97.436C133.65 96.5452 133.447 95.8715 133.04 95.4148C132.637 94.9536 132.136 94.723 131.534 94.723C130.924 94.723 130.417 94.9513 130.015 95.408C129.612 95.8647 129.411 96.5542 129.411 97.4767ZM140.596 101.078V100.169C140.139 100.884 139.468 101.241 138.582 101.241C138.007 101.241 137.478 101.083 136.995 100.766C136.515 100.45 136.142 100.009 135.875 99.4436C135.613 98.8739 135.482 98.2205 135.482 97.4834C135.482 96.7645 135.602 96.1134 135.842 95.5301C136.081 94.9423 136.441 94.4923 136.92 94.1804C137.399 93.8684 137.935 93.7124 138.527 93.7124C138.962 93.7124 139.348 93.8051 139.687 93.9904C140.026 94.1713 140.302 94.4087 140.515 94.7026V91.135H141.729V101.078H140.596ZM136.737 97.4834C136.737 98.4059 136.931 99.0954 137.32 99.5521C137.709 100.009 138.168 100.237 138.697 100.237C139.231 100.237 139.683 100.02 140.054 99.586C140.429 99.1474 140.616 98.4805 140.616 97.5852C140.616 96.5995 140.427 95.876 140.047 95.4148C139.667 94.9536 139.199 94.723 138.643 94.723C138.1 94.723 137.646 94.9445 137.279 95.3876C136.918 95.8308 136.737 96.5294 136.737 97.4834ZM147.935 100.19C147.483 100.574 147.047 100.845 146.626 101.004C146.21 101.162 145.763 101.241 145.283 101.241C144.492 101.241 143.884 101.049 143.459 100.664C143.034 100.276 142.821 99.7805 142.821 99.1791C142.821 98.8264 142.9 98.5053 143.059 98.216C143.221 97.922 143.432 97.6869 143.689 97.5106C143.952 97.3342 144.246 97.2008 144.571 97.1104C144.811 97.0471 145.173 96.9861 145.656 96.9273C146.642 96.8097 147.368 96.6695 147.834 96.5068C147.838 96.3395 147.84 96.2332 147.84 96.188C147.84 95.6906 147.725 95.3402 147.494 95.1367C147.182 94.8609 146.719 94.723 146.104 94.723C145.53 94.723 145.105 94.8247 144.829 95.0282C144.558 95.2271 144.356 95.5821 144.225 96.093L143.032 95.9302C143.14 95.4193 143.319 95.0078 143.567 94.6958C143.816 94.3793 144.176 94.1374 144.646 93.9701C145.116 93.7983 145.661 93.7124 146.28 93.7124C146.895 93.7124 147.395 93.7847 147.779 93.9294C148.164 94.0741 148.446 94.2572 148.627 94.4788C148.808 94.6958 148.935 94.9716 149.007 95.3063C149.048 95.5142 149.068 95.8895 149.068 96.4322V98.06C149.068 99.1949 149.093 99.9139 149.143 100.217C149.197 100.515 149.301 100.802 149.455 101.078H148.18C148.053 100.825 147.972 100.529 147.935 100.19ZM147.834 97.4631C147.39 97.644 146.726 97.7977 145.84 97.9243C145.338 97.9967 144.983 98.078 144.775 98.1685C144.567 98.2589 144.406 98.3923 144.293 98.5686C144.18 98.7405 144.124 98.9326 144.124 99.1452C144.124 99.4707 144.246 99.742 144.49 99.9591C144.739 100.176 145.1 100.285 145.575 100.285C146.045 100.285 146.464 100.183 146.83 99.9794C147.196 99.7714 147.465 99.4888 147.637 99.1316C147.768 98.8558 147.834 98.4488 147.834 97.9107V97.4631ZM150.493 103.852L150.357 102.706C150.624 102.778 150.857 102.815 151.056 102.815C151.327 102.815 151.544 102.769 151.707 102.679C151.87 102.588 152.003 102.462 152.107 102.299C152.184 102.177 152.308 101.874 152.48 101.39C152.503 101.322 152.539 101.223 152.589 101.092L149.855 93.8751H151.171L152.67 98.0464C152.864 98.5754 153.039 99.1316 153.192 99.7149C153.332 99.1542 153.5 98.6071 153.694 98.0735L155.234 93.8751H156.455L153.715 101.2C153.421 101.992 153.192 102.536 153.03 102.835C152.812 103.237 152.564 103.531 152.283 103.717C152.003 103.907 151.669 104.001 151.28 104.001C151.045 104.001 150.782 103.952 150.493 103.852ZM156.36 101.078V99.6878H157.751V101.078C157.751 101.589 157.66 102.001 157.479 102.313C157.299 102.629 157.011 102.873 156.618 103.045L156.279 102.523C156.537 102.41 156.727 102.243 156.849 102.021C156.971 101.804 157.039 101.49 157.052 101.078H156.36ZM167.193 101.078H165.972V93.2986C165.678 93.579 165.292 93.8593 164.812 94.1397C164.338 94.42 163.91 94.6303 163.53 94.7704V93.5903C164.213 93.2692 164.81 92.8804 165.321 92.4237C165.832 91.967 166.194 91.5239 166.406 91.0943H167.193V101.078ZM173.474 101.078H172.253V93.2986C171.959 93.579 171.573 93.8593 171.093 94.1397C170.619 94.42 170.191 94.6303 169.812 94.7704V93.5903C170.494 93.2692 171.091 92.8804 171.602 92.4237C172.113 91.967 172.475 91.5239 172.687 91.0943H173.474V101.078ZM176.866 95.2656V93.8751H178.256V95.2656H176.866ZM176.866 101.078V99.6878H178.256V101.078H176.866ZM179.634 98.4737L180.916 98.3652C181.011 98.9892 181.23 99.4594 181.574 99.7759C181.922 100.088 182.34 100.244 182.828 100.244C183.416 100.244 183.914 100.022 184.32 99.5792C184.727 99.1361 184.931 98.5483 184.931 97.8158C184.931 97.1194 184.734 96.5701 184.341 96.1676C183.952 95.7652 183.441 95.564 182.808 95.564C182.415 95.564 182.06 95.6544 181.743 95.8353C181.427 96.0116 181.178 96.2422 180.997 96.5271L179.851 96.3779L180.814 91.2706H185.758V92.4372H181.791L181.255 95.1096C181.852 94.6936 182.478 94.4856 183.134 94.4856C184.002 94.4856 184.734 94.7863 185.331 95.3876C185.928 95.989 186.226 96.7622 186.226 97.7073C186.226 98.6071 185.964 99.3848 185.44 100.04C184.802 100.845 183.932 101.248 182.828 101.248C181.924 101.248 181.185 100.995 180.61 100.488C180.041 99.9817 179.715 99.3102 179.634 98.4737ZM186.946 96.1744C186.946 94.9988 187.066 94.0537 187.305 93.3393C187.549 92.6204 187.909 92.0665 188.384 91.6776C188.863 91.2887 189.464 91.0943 190.188 91.0943C190.721 91.0943 191.189 91.2028 191.592 91.4199C191.994 91.6324 192.327 91.9421 192.589 92.3491C192.851 92.7515 193.057 93.2444 193.206 93.8277C193.355 94.4064 193.43 95.1887 193.43 96.1744C193.43 97.341 193.31 98.2838 193.07 99.0027C192.831 99.7172 192.471 100.271 191.992 100.664C191.517 101.053 190.916 101.248 190.188 101.248C189.229 101.248 188.476 100.904 187.929 100.217C187.274 99.3893 186.946 98.0419 186.946 96.1744ZM188.201 96.1744C188.201 97.8067 188.39 98.8942 188.77 99.4368C189.155 99.9749 189.627 100.244 190.188 100.244C190.749 100.244 191.219 99.9726 191.599 99.43C191.983 98.8874 192.175 97.8022 192.175 96.1744C192.175 94.5376 191.983 93.4501 191.599 92.912C191.219 92.3739 190.744 92.1049 190.174 92.1049C189.614 92.1049 189.166 92.3423 188.831 92.8171C188.411 93.423 188.201 94.5421 188.201 96.1744Z" fill="white" fill-opacity="0.25"/>
<g clip-path="url(#clip3_4006_86)">
<g clip-path="url(#clip4_4006_86)">
<path d="M85.139 43.8077H39.3182C27.2317 43.8077 17.4336 53.6057 17.4336 65.6923V84.1574C17.4336 96.2439 27.2317 106.042 39.3182 106.042H85.139C97.2255 106.042 107.024 96.2439 107.024 84.1574V65.6923C107.024 53.6057 97.2255 43.8077 85.139 43.8077Z" fill="black" fill-opacity="0.89"/>
<mask id="mask1_4006_86" style="mask-type:luminance" maskUnits="userSpaceOnUse" x="48" y="60" width="30" height="29">
<path d="M77.0594 60.0782H48.3359V88.8017H77.0594V60.0782Z" fill="white"/>
</mask>
<g mask="url(#mask1_4006_86)">
<path d="M72.3312 74.1544L59.7646 87.6186C59.6315 87.7607 59.4557 87.8556 59.2638 87.8891C59.072 87.9225 58.8744 87.8927 58.701 87.804C58.5276 87.7153 58.3877 87.5727 58.3025 87.3975C58.2173 87.2224 58.1914 87.0243 58.2286 86.8332L59.8735 78.6054L53.4073 76.1774C53.2685 76.1255 53.1446 76.0399 53.0469 75.9284C52.9491 75.8169 52.8805 75.683 52.8472 75.5385C52.8138 75.394 52.8168 75.2436 52.8558 75.1005C52.8948 74.9575 52.9687 74.8263 53.0707 74.7188L65.6373 61.2546C65.7704 61.1125 65.9462 61.0176 66.1381 60.9841C66.3299 60.9507 66.5275 60.9805 66.7009 61.0692C66.8743 61.1579 67.0142 61.3005 67.0994 61.4757C67.1846 61.6508 67.2105 61.8489 67.1733 62.04L65.5239 70.2767L71.9901 72.7014C72.1279 72.7537 72.2508 72.8391 72.3478 72.9502C72.4448 73.0612 72.5129 73.1945 72.5462 73.3381C72.5794 73.4817 72.5768 73.6313 72.5385 73.7737C72.5003 73.9161 72.4275 74.0468 72.3267 74.1544H72.3312Z" fill="#DDFF00"/>
</g>
</g>
</g>
<rect x="124.17" y="47.0782" width="8" height="8" rx="4" fill="#DDFF00"/>
<path d="M136.932 54.0782V46.92H137.903L141.663 52.5401V46.92H142.571V54.0782H141.6L137.84 48.4532V54.0782H136.932ZM144.787 54.0782V46.92H149.963V47.7647H145.735V49.9571H149.695V50.7969H145.735V53.2335H150.129V54.0782H144.787ZM153.288 54.0782L151.388 46.92H152.36L153.449 51.6124C153.566 52.1039 153.667 52.5922 153.752 53.0772C153.934 52.3122 154.041 51.8712 154.074 51.754L155.436 46.92H156.579L157.604 50.543C157.861 51.4415 158.047 52.2862 158.161 53.0772C158.252 52.6247 158.371 52.1055 158.517 51.5196L159.64 46.92H160.593L158.63 54.0782H157.717L156.208 48.6241C156.081 48.1684 156.006 47.8884 155.983 47.7842C155.908 48.113 155.838 48.393 155.773 48.6241L154.255 54.0782H153.288Z" fill="#DDFF00"/>
</g>
<defs>
<clipPath id="clip0_4006_86">
<rect width="324" height="194" fill="white" transform="translate(0 0.078186)"/>
</clipPath>
<clipPath id="clip1_4006_86">
<rect width="74" height="52" fill="white" transform="translate(42 12.0782)"/>
</clipPath>
<clipPath id="clip2_4006_86">
<rect width="74" height="52" fill="white" transform="translate(42 12.0782)"/>
</clipPath>
<clipPath id="clip3_4006_86">
<rect width="90" height="63" fill="white" transform="translate(17.1699 43.0782)"/>
</clipPath>
<clipPath id="clip4_4006_86">
<rect width="90" height="63" fill="white" transform="translate(17.1699 43.0782)"/>
</clipPath>
</defs>
</svg>
