<svg width="348" height="273" viewBox="0 0 348 273" fill="none" xmlns="http://www.w3.org/2000/svg">
<g clip-path="url(#clip0_4006_155)">
<path d="M5.08398 268.139C15.3522 255.298 44.8732 230.901 60.2755 227.049C75.6778 223.197 89.7966 227.049 101.348 218.061C112.9 209.072 112.9 198.8 125.735 196.232C138.57 193.664 152.689 211.64 168.092 206.504C183.494 201.368 192.478 180.824 197.613 155.143C202.747 129.462 201.584 56.139 251.584 56.139C301.584 56.139 312.084 -24.8618 312.084 -42.3618" stroke="#292929" stroke-width="4.66666"/>
</g>
<rect x="191.25" y="122.638" width="16" height="16" rx="8" fill="#93F24D"/>
<rect x="175.25" y="105.638" width="49" height="49" rx="24.5" fill="#6CE57D" fill-opacity="0.15"/>
<g filter="url(#filter0_f_4006_155)">
<rect x="116.25" y="39.6382" width="166" height="174" rx="83" fill="#E2FA06" fill-opacity="0.06"/>
</g>
<path d="M26.2946 211.638V208.433H20.4874V206.927L26.5959 198.252H27.9382V206.927H29.7461V208.433H27.9382V211.638H26.2946ZM26.2946 206.927V200.891L22.1036 206.927H26.2946ZM30.8753 208.132L32.601 207.986C32.7289 208.826 33.0241 209.459 33.4867 209.885C33.9554 210.305 34.5185 210.515 35.1759 210.515C35.9673 210.515 36.6369 210.217 37.1847 209.62C37.7326 209.024 38.0065 208.232 38.0065 207.246C38.0065 206.309 37.7417 205.569 37.2121 205.027C36.6886 204.486 36.0008 204.215 35.1485 204.215C34.619 204.215 34.1411 204.337 33.715 204.58C33.2889 204.817 32.9541 205.128 32.7106 205.511L31.1675 205.31L32.4641 198.435H39.1205V200.005H33.7789L33.0576 203.603C33.8611 203.043 34.7042 202.763 35.5868 202.763C36.7556 202.763 37.7417 203.168 38.5452 203.977C39.3487 204.787 39.7505 205.828 39.7505 207.1C39.7505 208.312 39.3974 209.359 38.6913 210.241C37.833 211.325 36.6612 211.866 35.1759 211.866C33.9585 211.866 32.9632 211.526 32.1901 210.844C31.4232 210.162 30.9849 209.258 30.8753 208.132Z" fill="white" fill-opacity="0.08"/>
<path d="M71.0353 207.635L72.6788 207.415C72.8675 208.347 73.1871 209.019 73.6375 209.433C74.0941 209.841 74.648 210.045 75.2994 210.045C76.0724 210.045 76.7238 209.777 77.2534 209.242C77.789 208.706 78.0569 208.042 78.0569 207.251C78.0569 206.496 77.8104 205.875 77.3173 205.388C76.8242 204.895 76.1972 204.649 75.4363 204.649C75.1259 204.649 74.7393 204.71 74.2767 204.831L74.4593 203.389C74.5689 203.401 74.6572 203.407 74.7241 203.407C75.4242 203.407 76.0542 203.224 76.6142 202.859C77.1742 202.494 77.4542 201.931 77.4542 201.17C77.4542 200.567 77.2503 200.068 76.8425 199.672C76.4346 199.277 75.9081 199.079 75.2628 199.079C74.6237 199.079 74.091 199.28 73.6649 199.682C73.2388 200.083 72.9649 200.686 72.8432 201.49L71.1996 201.197C71.4005 200.096 71.857 199.243 72.5692 198.641C73.2814 198.032 74.1671 197.728 75.2263 197.728C75.9568 197.728 76.6294 197.886 77.2442 198.202C77.859 198.513 78.3278 198.939 78.6504 199.481C78.9791 200.022 79.1435 200.598 79.1435 201.206C79.1435 201.785 78.9882 202.311 78.6778 202.786C78.3673 203.261 77.9077 203.638 77.299 203.918C78.0904 204.101 78.7052 204.481 79.1435 205.06C79.5817 205.632 79.8009 206.35 79.8009 207.215C79.8009 208.383 79.3748 209.376 78.5226 210.191C77.6703 211.001 76.5929 211.406 75.2902 211.406C74.1154 211.406 73.1384 211.056 72.3592 210.356C71.5861 209.656 71.1448 208.749 71.0353 207.635ZM80.8753 207.662L82.601 207.516C82.7289 208.356 83.0241 208.989 83.4867 209.415C83.9554 209.835 84.5185 210.045 85.1759 210.045C85.9673 210.045 86.6369 209.747 87.1847 209.15C87.7326 208.554 88.0065 207.762 88.0065 206.776C88.0065 205.839 87.7417 205.099 87.2121 204.557C86.6886 204.016 86.0008 203.745 85.1485 203.745C84.619 203.745 84.1411 203.867 83.715 204.11C83.2889 204.347 82.9541 204.658 82.7106 205.041L81.1675 204.841L82.4641 197.965H89.1205V199.535H83.7789L83.0576 203.133C83.8611 202.573 84.7042 202.293 85.5868 202.293C86.7556 202.293 87.7417 202.698 88.5452 203.507C89.3487 204.317 89.7505 205.358 89.7505 206.63C89.7505 207.842 89.3974 208.889 88.6913 209.771C87.833 210.855 86.6612 211.396 85.1759 211.396C83.9585 211.396 82.9632 211.056 82.1901 210.374C81.4232 209.692 80.9849 208.788 80.8753 207.662Z" fill="white" fill-opacity="0.08"/>
<path d="M129.664 209.589V211.168H120.816C120.804 210.773 120.868 210.392 121.008 210.027C121.233 209.424 121.592 208.831 122.085 208.246C122.584 207.662 123.303 206.986 124.24 206.219C125.695 205.026 126.678 204.083 127.189 203.389C127.701 202.689 127.956 202.028 127.956 201.407C127.956 200.756 127.722 200.208 127.253 199.764C126.791 199.313 126.185 199.088 125.436 199.088C124.645 199.088 124.012 199.325 123.537 199.8C123.062 200.275 122.822 200.933 122.816 201.773L121.127 201.599C121.242 200.339 121.677 199.38 122.432 198.723C123.187 198.059 124.201 197.728 125.473 197.728C126.757 197.728 127.774 198.084 128.523 198.796C129.271 199.508 129.646 200.391 129.646 201.444C129.646 201.98 129.536 202.506 129.317 203.023C129.098 203.541 128.733 204.086 128.221 204.658C127.716 205.23 126.873 206.015 125.692 207.014C124.706 207.842 124.073 208.405 123.793 208.703C123.513 208.995 123.281 209.29 123.099 209.589H129.664ZM130.875 207.662L132.601 207.516C132.729 208.356 133.024 208.989 133.487 209.415C133.955 209.835 134.519 210.045 135.176 210.045C135.967 210.045 136.637 209.747 137.185 209.15C137.733 208.554 138.007 207.762 138.007 206.776C138.007 205.839 137.742 205.099 137.212 204.557C136.689 204.016 136.001 203.745 135.149 203.745C134.619 203.745 134.141 203.867 133.715 204.11C133.289 204.347 132.954 204.658 132.711 205.041L131.167 204.841L132.464 197.965H139.12V199.535H133.779L133.058 203.133C133.861 202.573 134.704 202.293 135.587 202.293C136.756 202.293 137.742 202.698 138.545 203.507C139.349 204.317 139.75 205.358 139.75 206.63C139.75 207.842 139.397 208.889 138.691 209.771C137.833 210.855 136.661 211.396 135.176 211.396C133.958 211.396 132.963 211.056 132.19 210.374C131.423 209.692 130.985 208.788 130.875 207.662Z" fill="white" fill-opacity="0.08"/>
<path d="M179.467 211.168H177.823V200.695C177.428 201.073 176.907 201.45 176.262 201.827C175.623 202.205 175.048 202.488 174.536 202.677V201.088C175.455 200.656 176.259 200.132 176.947 199.517C177.635 198.902 178.122 198.306 178.408 197.728H179.467V211.168ZM183.125 207.662L184.851 207.516C184.979 208.356 185.274 208.989 185.737 209.415C186.205 209.835 186.769 210.045 187.426 210.045C188.217 210.045 188.887 209.747 189.435 209.15C189.983 208.554 190.257 207.762 190.257 206.776C190.257 205.839 189.992 205.099 189.462 204.557C188.939 204.016 188.251 203.745 187.399 203.745C186.869 203.745 186.391 203.867 185.965 204.11C185.539 204.347 185.204 204.658 184.961 205.041L183.417 204.841L184.714 197.965H191.37V199.535H186.029L185.308 203.133C186.111 202.573 186.954 202.293 187.837 202.293C189.006 202.293 189.992 202.698 190.795 203.507C191.599 204.317 192 205.358 192 206.63C192 207.842 191.647 208.889 190.941 209.771C190.083 210.855 188.911 211.396 187.426 211.396C186.208 211.396 185.213 211.056 184.44 210.374C183.673 209.692 183.235 208.788 183.125 207.662Z" fill="white" fill-opacity="0.08"/>
<path d="M229.026 207.662L230.752 207.516C230.88 208.356 231.175 208.989 231.638 209.415C232.106 209.835 232.669 210.045 233.327 210.045C234.118 210.045 234.788 209.747 235.336 209.15C235.883 208.554 236.157 207.762 236.157 206.776C236.157 205.839 235.893 205.099 235.363 204.557C234.839 204.016 234.152 203.745 233.299 203.745C232.77 203.745 232.292 203.867 231.866 204.11C231.44 204.347 231.105 204.658 230.861 205.041L229.318 204.841L230.615 197.965H237.271V199.535H231.93L231.208 203.133C232.012 202.573 232.855 202.293 233.738 202.293C234.906 202.293 235.893 202.698 236.696 203.507C237.5 204.317 237.901 205.358 237.901 206.63C237.901 207.842 237.548 208.889 236.842 209.771C235.984 210.855 234.812 211.396 233.327 211.396C232.109 211.396 231.114 211.056 230.341 210.374C229.574 209.692 229.136 208.788 229.026 207.662Z" fill="white" fill-opacity="0.08"/>
<path d="M281.026 204.567C281.026 202.984 281.187 201.712 281.51 200.75C281.839 199.782 282.323 199.036 282.962 198.513C283.607 197.989 284.417 197.728 285.391 197.728C286.109 197.728 286.739 197.874 287.281 198.166C287.823 198.452 288.27 198.869 288.623 199.417C288.976 199.959 289.253 200.622 289.454 201.407C289.655 202.186 289.755 203.24 289.755 204.567C289.755 206.137 289.594 207.406 289.271 208.374C288.949 209.336 288.465 210.082 287.819 210.611C287.18 211.135 286.371 211.396 285.391 211.396C284.1 211.396 283.087 210.934 282.35 210.009C281.467 208.895 281.026 207.081 281.026 204.567ZM282.715 204.567C282.715 206.764 282.971 208.228 283.482 208.959C284 209.683 284.636 210.045 285.391 210.045C286.145 210.045 286.779 209.68 287.29 208.949C287.807 208.219 288.066 206.758 288.066 204.567C288.066 202.363 287.807 200.899 287.29 200.175C286.779 199.45 286.139 199.088 285.372 199.088C284.618 199.088 284.015 199.408 283.565 200.047C282.998 200.863 282.715 202.369 282.715 204.567Z" fill="white" fill-opacity="0.08"/>
<path d="M332.364 207.151V205.498H337.413V207.151H332.364ZM338.213 207.662L339.939 207.516C340.067 208.356 340.362 208.989 340.825 209.415C341.294 209.835 341.857 210.045 342.514 210.045C343.305 210.045 343.975 209.747 344.523 209.15C345.071 208.554 345.345 207.762 345.345 206.776C345.345 205.839 345.08 205.099 344.55 204.557C344.027 204.016 343.339 203.745 342.487 203.745C341.957 203.745 341.479 203.867 341.053 204.11C340.627 204.347 340.292 204.658 340.049 205.041L338.506 204.841L339.802 197.965H346.459V199.535H341.117L340.396 203.133C341.199 202.573 342.042 202.293 342.925 202.293C344.094 202.293 345.08 202.698 345.883 203.507C346.687 204.317 347.089 205.358 347.089 206.63C347.089 207.842 346.736 208.889 346.029 209.771C345.171 210.855 343.999 211.396 342.514 211.396C341.297 211.396 340.301 211.056 339.528 210.374C338.761 209.692 338.323 208.788 338.213 207.662Z" fill="white" fill-opacity="0.08"/>
<defs>
<filter id="filter0_f_4006_155" x="85.1389" y="8.52708" width="228.222" height="236.222" filterUnits="userSpaceOnUse" color-interpolation-filters="sRGB">
<feFlood flood-opacity="0" result="BackgroundImageFix"/>
<feBlend mode="normal" in="SourceGraphic" in2="BackgroundImageFix" result="shape"/>
<feGaussianBlur stdDeviation="15.5555" result="effect1_foregroundBlur_4006_155"/>
</filter>
<clipPath id="clip0_4006_155">
<rect width="314" height="317" fill="white" transform="translate(1.25 -45.3618)"/>
</clipPath>
</defs>
</svg>
