<svg width="282" height="173" viewBox="0 0 282 173" fill="none" xmlns="http://www.w3.org/2000/svg">
<g clip-path="url(#clip0_4006_227)">
<g clip-path="url(#clip1_4006_227)">
<path d="M94.134 170C116.351 170 134.362 151.989 134.362 129.772C134.362 107.555 116.351 89.5442 94.134 89.5442C71.9167 89.5442 53.906 107.555 53.906 129.772C53.906 151.989 71.9167 170 94.134 170Z" fill="#131313" fill-opacity="0.89"/>
<mask id="mask0_4006_227" style="mask-type:luminance" maskUnits="userSpaceOnUse" x="77" y="114" width="34" height="32">
<path d="M77.6101 114.331H110.118V145.171H77.6101V114.331Z" fill="white"/>
</mask>
<g mask="url(#mask0_4006_227)">
<path d="M78.1661 115.046L90.2981 131.267L78.0901 144.456H80.8371L91.5261 132.909L100.162 144.456H109.512L96.6981 127.322L108.061 115.046H105.313L95.4701 125.681L87.5171 115.046H78.1661ZM82.2071 117.07H86.5031L105.471 142.432H101.175L82.2071 117.07Z" fill="white"/>
</g>
<path d="M187.865 170.47C210.082 170.47 228.093 152.459 228.093 130.242C228.093 108.025 210.082 90.0142 187.865 90.0142C165.648 90.0142 147.637 108.025 147.637 130.242C147.637 152.459 165.648 170.47 187.865 170.47Z" fill="#131313" fill-opacity="0.89"/>
<mask id="mask1_4006_227" style="mask-type:luminance" maskUnits="userSpaceOnUse" x="169" y="111" width="38" height="39">
<path d="M169.443 111.894H206.827V149.278H169.443V111.894Z" fill="white"/>
</mask>
<g mask="url(#mask1_4006_227)">
<path d="M192.808 130.594C192.809 131.942 192.565 133.279 192.09 134.54C190.828 135.015 189.491 135.259 188.143 135.259H188.127C186.779 135.259 185.442 135.016 184.181 134.541C183.705 133.28 183.462 131.942 183.462 130.594V130.578C183.462 129.23 183.704 127.893 184.179 126.632C185.441 126.156 186.779 125.912 188.127 125.913H188.143C189.491 125.912 190.828 126.156 192.09 126.632C192.566 127.893 192.809 129.23 192.808 130.577V130.594ZM206.567 127.47H195.657L203.371 119.755C202.765 118.905 202.09 118.106 201.352 117.368V117.367C200.613 116.63 199.815 115.955 198.965 115.35L191.25 123.065V112.154C190.224 111.981 189.185 111.894 188.145 111.894H188.125C187.067 111.894 186.03 111.984 185.02 112.154V123.065L177.305 115.35C176.454 115.955 175.656 116.63 174.919 117.369L174.915 117.371C174.178 118.109 173.503 118.906 172.898 119.755L180.614 127.47H169.704C169.704 127.47 169.443 129.52 169.443 130.579V130.592C169.443 131.652 169.533 132.69 169.704 133.701H180.614L172.899 141.416C174.112 143.12 175.601 144.609 177.305 145.822L185.02 138.107V149.018C186.045 149.19 187.082 149.277 188.122 149.278H188.148C189.187 149.277 190.225 149.19 191.25 149.018V138.107L198.966 145.822C199.816 145.217 200.614 144.542 201.352 143.804L201.354 143.802C202.091 143.064 202.766 142.266 203.371 141.416L195.655 133.701H206.567C206.737 132.692 206.826 131.657 206.827 130.599V130.572C206.826 129.533 206.739 128.495 206.567 127.47Z" fill="#FF4A00"/>
</g>
<path d="M281.865 170C304.082 170 322.093 151.989 322.093 129.772C322.093 107.555 304.082 89.5442 281.865 89.5442C259.648 89.5442 241.637 107.555 241.637 129.772C241.637 151.989 259.648 170 281.865 170Z" fill="#131313" fill-opacity="0.89"/>
<mask id="mask2_4006_227" style="mask-type:luminance" maskUnits="userSpaceOnUse" x="262" y="114" width="40" height="31">
<path d="M262.09 114.331H301.619V144.952H262.09V114.331Z" fill="white"/>
</mask>
<g mask="url(#mask2_4006_227)">
<mask id="mask3_4006_227" style="mask-type:luminance" maskUnits="userSpaceOnUse" x="262" y="114" width="40" height="31">
<path d="M301.617 114.332H262.088V144.954H301.617V114.332Z" fill="white"/>
</mask>
<g mask="url(#mask3_4006_227)">
<path d="M295.551 117.059C292.988 115.883 290.284 115.044 287.505 114.564C287.48 114.559 287.454 114.562 287.43 114.573C287.407 114.584 287.388 114.603 287.376 114.625C287.007 115.294 286.673 115.981 286.374 116.683C283.379 116.228 280.332 116.228 277.337 116.683C277.067 116.035 276.668 115.243 276.319 114.625C276.306 114.603 276.287 114.586 276.264 114.575C276.241 114.564 276.215 114.56 276.19 114.564C273.411 115.044 270.707 115.882 268.144 117.059C268.122 117.069 268.104 117.085 268.091 117.105C262.966 124.761 261.563 132.229 262.251 139.604C262.253 139.622 262.259 139.64 262.268 139.656C262.277 139.672 262.289 139.686 262.303 139.697C265.684 142.18 268.959 143.687 272.173 144.686C272.198 144.694 272.225 144.694 272.25 144.685C272.274 144.677 272.296 144.662 272.312 144.641C273.074 143.603 273.749 142.505 274.331 141.356C274.339 141.34 274.344 141.323 274.345 141.306C274.345 141.288 274.343 141.27 274.336 141.254C274.33 141.237 274.32 141.223 274.307 141.21C274.295 141.198 274.28 141.188 274.263 141.182C273.198 140.774 272.167 140.283 271.179 139.712C271.161 139.702 271.146 139.687 271.135 139.669C271.124 139.651 271.118 139.631 271.117 139.61C271.115 139.59 271.119 139.569 271.128 139.55C271.137 139.531 271.15 139.515 271.167 139.502C271.374 139.347 271.581 139.185 271.779 139.022C271.797 139.008 271.818 138.998 271.841 138.995C271.863 138.992 271.886 138.996 271.907 139.005C278.376 141.959 285.38 141.959 291.773 139.005C291.794 138.995 291.817 138.992 291.84 138.995C291.863 138.997 291.884 139.007 291.902 139.021C292.1 139.184 292.307 139.347 292.516 139.502C292.533 139.515 292.546 139.531 292.555 139.55C292.563 139.569 292.567 139.589 292.566 139.61C292.565 139.631 292.559 139.651 292.548 139.669C292.538 139.687 292.523 139.701 292.505 139.712C291.52 140.288 290.488 140.779 289.42 141.181C289.404 141.188 289.389 141.197 289.376 141.21C289.364 141.222 289.354 141.237 289.348 141.254C289.341 141.27 289.338 141.288 289.339 141.306C289.34 141.323 289.345 141.34 289.353 141.356C289.944 142.499 290.619 143.596 291.371 144.639C291.386 144.661 291.408 144.677 291.432 144.685C291.457 144.694 291.484 144.694 291.509 144.686C294.739 143.687 298.014 142.18 301.395 139.697C301.41 139.687 301.422 139.673 301.431 139.657C301.44 139.642 301.445 139.624 301.447 139.606C302.271 131.079 300.066 123.672 295.602 117.106C295.591 117.085 295.573 117.069 295.551 117.059ZM275.297 135.113C273.35 135.113 271.745 133.325 271.745 131.129C271.745 128.933 273.318 127.145 275.297 127.145C277.292 127.145 278.881 128.949 278.85 131.129C278.85 133.325 277.276 135.113 275.297 135.113ZM288.432 135.113C286.484 135.113 284.88 133.325 284.88 131.129C284.88 128.933 286.453 127.145 288.432 127.145C290.426 127.145 292.016 128.949 291.985 131.129C291.985 133.325 290.426 135.113 288.432 135.113Z" fill="#5865F2"/>
</g>
</g>
<path d="M41.443 81.5442C63.6807 81.5442 81.708 63.5169 81.708 41.2792C81.708 19.0414 63.6807 1.01419 41.443 1.01419C19.2052 1.01419 1.17798 19.0414 1.17798 41.2792C1.17798 63.5169 19.2052 81.5442 41.443 81.5442Z" fill="#131313" fill-opacity="0.89"/>
<mask id="mask4_4006_227" style="mask-type:luminance" maskUnits="userSpaceOnUse" x="30" y="23" width="23" height="35">
<path d="M30.0549 23.7282H52.8309V57.8942H30.0549V23.7282Z" fill="white"/>
</mask>
<g mask="url(#mask4_4006_227)">
<path d="M41.4319 40.8172C41.4324 39.3072 42.0327 37.8593 43.1007 36.7919C44.1687 35.7244 45.6169 35.1249 47.1269 35.1252C48.6369 35.1249 50.0851 35.7244 51.1531 36.7919C52.2211 37.8593 52.8214 39.3072 52.8219 40.8172C52.8219 42.3276 52.2219 43.7761 51.1539 44.8442C50.0858 45.9122 48.6373 46.5122 47.1269 46.5122C45.6165 46.5122 44.1679 45.9122 43.0999 44.8442C42.0319 43.7761 41.4319 42.3276 41.4319 40.8172Z" fill="#1ABCFE"/>
<path d="M30.0549 52.1872C30.0555 50.6772 30.6557 49.2293 31.7237 48.1619C32.7917 47.0944 34.24 46.4949 35.7499 46.4952H41.4449V52.1872C41.4441 53.697 40.8437 55.1446 39.7758 56.2119C38.7078 57.2791 37.2597 57.8784 35.7499 57.8782C35.0021 57.8794 34.2613 57.733 33.5701 57.4475C32.8789 57.1619 32.2507 56.7428 31.7217 56.2142C31.1927 55.6856 30.7732 55.0578 30.4872 54.3667C30.2012 53.6757 30.0543 52.9351 30.0549 52.1872Z" fill="#0ACF83"/>
<path d="M41.4319 23.7562V35.1262H47.1269C48.6367 35.1264 50.0848 34.5271 51.1527 33.4599C52.2207 32.3926 52.8211 30.945 52.8219 29.4352C52.8214 27.9252 52.2211 26.4773 51.1531 25.4099C50.0851 24.3424 48.6369 23.7429 47.1269 23.7432H41.4319V23.7562Z" fill="#FF7262"/>
<path d="M30.0549 29.4482C30.056 30.9578 30.6565 32.4052 31.7244 33.4722C32.7924 34.5392 34.2403 35.1384 35.7499 35.1382H41.4449V23.7572H35.7499C35.002 23.756 34.2611 23.9024 33.5698 24.188C32.8786 24.4736 32.2504 24.8928 31.7214 25.4215C31.1924 25.9503 30.7728 26.5782 30.4869 27.2693C30.2009 27.9605 30.0541 28.7012 30.0549 29.4492V29.4482Z" fill="#F24E1E"/>
<path d="M30.0549 40.8172C30.056 42.3268 30.6565 43.7742 31.7244 44.8412C32.7924 45.9082 34.2403 46.5074 35.7499 46.5072H41.4449V35.1262H35.7499C34.24 35.1259 32.7917 35.7254 31.7237 36.7929C30.6557 37.8603 30.0555 39.3072 30.0549 40.8172Z" fill="#A259FF"/>
</g>
<path d="M135.529 81.0752C157.767 81.0752 175.794 63.0479 175.794 40.8102C175.794 18.5724 157.767 0.545181 135.529 0.545181C113.291 0.545181 95.2639 18.5724 95.2639 40.8102C95.2639 63.0479 113.291 81.0752 135.529 81.0752Z" fill="#131313" fill-opacity="0.89"/>
<path d="M120.154 23.7132L140.845 22.1852C143.387 21.9672 144.04 22.1142 145.638 23.2752L152.243 27.9292C153.332 28.7292 153.695 28.9472 153.695 29.8192V55.3372C153.695 56.9372 153.114 57.8822 151.081 58.0272L127.053 59.4822C125.528 59.5542 124.801 59.3362 124.002 58.3172L119.138 51.9932C118.266 50.8292 117.904 49.9572 117.904 48.9392V26.2562C117.904 24.9482 118.485 23.8582 120.154 23.7132Z" fill="white"/>
<path d="M140.387 23.8042L121.577 25.2012C120.059 25.3332 119.531 26.3292 119.531 27.5242V48.2472C119.531 49.1772 119.86 49.9742 120.653 51.0372L125.075 56.8162C125.801 57.7462 126.462 57.9462 127.849 57.8792L149.692 56.5502C151.539 56.4182 152.068 55.5542 152.068 54.0932V30.7782C152.068 30.0232 151.772 29.8052 150.898 29.1602L150.747 29.0512L144.744 24.8002C143.291 23.7392 142.697 23.6052 140.387 23.8042ZM128.343 30.3972C126.559 30.5172 126.154 30.5452 125.141 29.7172L122.566 27.6582C122.304 27.3922 122.436 27.0592 123.095 26.9932L141.178 25.6652C142.696 25.5322 143.487 26.0642 144.081 26.5282L147.182 28.7872C147.315 28.8542 147.645 29.2512 147.248 29.2512L128.574 30.3812L128.343 30.3972ZM126.263 53.8942V34.1022C126.263 33.2372 126.527 32.8382 127.318 32.7722L148.766 31.5102C149.494 31.4432 149.823 31.9082 149.823 32.7712V52.4312C149.823 53.2962 149.69 54.0272 148.502 54.0932L127.978 55.2892C126.79 55.3552 126.263 54.9572 126.263 53.8942ZM146.524 35.1632C146.655 35.7612 146.524 36.3592 145.929 36.4272L144.94 36.6242V51.2372C144.081 51.7012 143.29 51.9672 142.629 51.9672C141.573 51.9672 141.309 51.6342 140.518 50.6392L134.049 40.4102V50.3062L136.096 50.7722C136.096 50.7722 136.096 51.9682 134.445 51.9682L129.893 52.2332C129.76 51.9672 129.893 51.3032 130.354 51.1712L131.543 50.8392V37.7552L129.893 37.6202C129.76 37.0222 130.09 36.1602 131.015 36.0922L135.898 35.7622L142.629 46.1222V36.9562L140.914 36.7582C140.781 36.0262 141.309 35.4942 141.969 35.4292L146.524 35.1632Z" fill="black"/>
<path d="M229.074 81.0752C251.312 81.0752 269.339 63.0479 269.339 40.8102C269.339 18.5724 251.312 0.545181 229.074 0.545181C206.836 0.545181 188.809 18.5724 188.809 40.8102C188.809 63.0479 206.836 81.0752 229.074 81.0752Z" fill="#131313" fill-opacity="0.89"/>
<path fill-rule="evenodd" clip-rule="evenodd" d="M224.058 22.9132C223.577 22.9132 223.101 23.008 222.657 23.192C222.213 23.376 221.81 23.6456 221.47 23.9855C221.13 24.3254 220.861 24.7289 220.677 25.173C220.493 25.6171 220.398 26.093 220.398 26.5737C220.399 27.0543 220.493 27.5302 220.677 27.9743C220.861 28.4183 221.131 28.8217 221.471 29.1615C221.811 29.5014 222.214 29.7709 222.658 29.9548C223.102 30.1386 223.578 30.2332 224.059 30.2332H227.72V26.5752C227.72 25.604 227.334 24.6727 226.647 23.986C225.96 23.2993 225.029 22.9134 224.058 22.9132C224.059 22.9132 224.059 22.9132 224.058 22.9132ZM224.058 32.6742H214.298C213.817 32.674 213.341 32.7686 212.897 32.9524C212.453 33.1363 212.049 33.4058 211.709 33.7456C211.369 34.0854 211.1 34.4889 210.915 34.9329C210.731 35.377 210.637 35.853 210.636 36.3337C210.636 36.8144 210.731 37.2904 210.915 37.7346C211.099 38.1787 211.368 38.5823 211.708 38.9223C212.048 39.2623 212.451 39.5321 212.895 39.7162C213.339 39.9002 213.815 39.995 214.296 39.9952H224.058C225.014 39.9728 225.923 39.5774 226.591 38.8935C227.259 38.2095 227.633 37.2913 227.633 36.3352C227.633 35.379 227.259 34.4608 226.591 33.7769C225.923 33.0929 225.014 32.6965 224.058 32.6742Z" fill="#36C5F0"/>
<path fill-rule="evenodd" clip-rule="evenodd" d="M247.24 36.3342C247.24 35.8535 247.145 35.3774 246.961 34.9333C246.777 34.4892 246.508 34.0857 246.168 33.7458C245.828 33.4059 245.424 33.1364 244.98 32.9525C244.536 32.7686 244.06 32.674 243.579 32.6742C243.098 32.674 242.622 32.7686 242.178 32.9525C241.734 33.1364 241.33 33.4059 240.99 33.7458C240.65 34.0857 240.381 34.4892 240.197 34.9333C240.013 35.3774 239.918 35.8535 239.918 36.3342V39.9952H243.579C244.06 39.9953 244.536 39.9007 244.98 39.7169C245.424 39.533 245.828 39.2634 246.168 38.9235C246.508 38.5837 246.777 38.1801 246.961 37.736C247.145 37.2919 247.24 36.8149 247.24 36.3342ZM237.479 36.3342V26.5742C237.452 25.6215 237.054 24.717 236.371 24.0528C235.687 23.3886 234.772 23.017 233.818 23.017C232.865 23.017 231.95 23.3886 231.266 24.0528C230.583 24.717 230.185 25.6215 230.158 26.5742V36.3342C230.158 37.305 230.544 38.2361 231.23 38.9225C231.917 39.609 232.848 39.9947 233.818 39.9947C234.789 39.9947 235.72 39.609 236.407 38.9225C237.093 38.2361 237.479 37.305 237.479 36.3342Z" fill="#2EB67D"/>
<path fill-rule="evenodd" clip-rule="evenodd" d="M233.819 59.5182C234.3 59.5182 234.776 59.4235 235.22 59.2396C235.664 59.0557 236.067 58.7861 236.407 58.4462C236.747 58.1063 237.016 57.7029 237.2 57.2588C237.384 56.8148 237.479 56.3388 237.479 55.8582C237.479 55.3776 237.384 54.9016 237.2 54.4576C237.016 54.0135 236.747 53.61 236.407 53.2702C236.067 52.9303 235.664 52.6607 235.22 52.4768C234.776 52.2929 234.3 52.1982 233.819 52.1982H230.158V55.8582C230.159 56.8288 230.545 57.7594 231.231 58.4457C231.918 59.1319 232.848 59.5177 233.819 59.5182ZM233.819 49.7552H243.58C244.54 49.7396 245.456 49.3472 246.13 48.6626C246.803 47.9781 247.181 47.0562 247.181 46.0957C247.182 45.1352 246.805 44.2131 246.131 43.5281C245.458 42.8432 244.542 42.4503 243.582 42.4342H233.821C233.34 42.4341 232.864 42.5286 232.42 42.7124C231.976 42.8962 231.573 43.1657 231.233 43.5055C230.893 43.8452 230.623 44.2486 230.439 44.6926C230.255 45.1366 230.16 45.6126 230.16 46.0932C230.16 46.5738 230.254 47.0498 230.438 47.4939C230.622 47.938 230.891 48.3415 231.231 48.6815C231.571 49.0214 231.974 49.2912 232.418 49.4752C232.862 49.6593 233.338 49.7551 233.819 49.7552Z" fill="#ECB22E"/>
<path fill-rule="evenodd" clip-rule="evenodd" d="M210.637 46.0962C210.637 47.0671 211.023 47.9983 211.709 48.6849C212.396 49.3715 213.327 49.7572 214.298 49.7572C215.269 49.7572 216.2 49.3715 216.887 48.6849C217.573 47.9983 217.959 47.0671 217.959 46.0962V42.4362H214.298C213.817 42.4361 213.341 42.5306 212.897 42.7145C212.453 42.8984 212.049 43.1679 211.709 43.5078C211.369 43.8477 211.1 44.2512 210.916 44.6953C210.732 45.1395 210.637 45.6155 210.637 46.0962ZM220.398 46.0962V55.8562C220.398 56.827 220.783 57.7582 221.469 58.4448C222.156 59.1315 223.087 59.5174 224.057 59.5177C225.028 59.518 225.959 59.1325 226.646 58.4463C227.333 57.76 227.719 56.829 227.719 55.8582V46.0982C227.703 45.1378 227.311 44.2221 226.626 43.5484C225.942 42.8747 225.02 42.4969 224.059 42.4967C223.099 42.4964 222.177 42.8736 221.492 43.547C220.807 44.2203 220.414 45.1358 220.398 46.0962Z" fill="#E01E5A"/>
</g>
</g>
<defs>
<clipPath id="clip0_4006_227">
<rect width="282" height="172" fill="white" transform="translate(0 0.138184)"/>
</clipPath>
<clipPath id="clip1_4006_227">
<rect width="282" height="172" fill="white" transform="translate(0 0.138184)"/>
</clipPath>
</defs>
</svg>
