<svg width="63" height="63" viewBox="0 0 63 63" fill="none" xmlns="http://www.w3.org/2000/svg">
<g clip-path="url(#clip0_0_1039)">
<g clip-path="url(#clip1_0_1039)">
<mask id="mask0_0_1039" style="mask-type:luminance" maskUnits="userSpaceOnUse" x="6" y="6" width="51" height="51">
<path d="M6.33154 6.5H56.3315V56.5H6.33154V6.5Z" fill="white"/>
</mask>
<g mask="url(#mask0_0_1039)">
<path d="M22.9975 14.849C22.9975 19.449 26.7305 23.182 31.3305 23.182H47.9975C45.7877 23.1812 43.6687 22.303 42.1061 20.7404C40.5435 19.1779 39.6653 17.0588 39.6645 14.849M39.6495 14.833V6.5H22.9835V14.833H39.6495ZM39.6655 48.18C39.6655 43.581 35.9315 39.848 31.3315 39.848H14.6655C19.2655 39.848 22.9985 43.581 22.9985 48.181" fill="white"/>
<path d="M23.0135 48.167V56.5H39.6795V48.167H23.0135Z" fill="white"/>
<path d="M47.9985 23.1821C45.7887 23.1829 43.6697 24.0611 42.1071 25.6237C40.5445 27.1862 39.6663 29.3053 39.6655 31.5151V48.1801C39.6655 43.5801 43.3985 39.8471 47.9985 39.8471M47.9985 39.8181H56.3315V23.1521H47.9985V39.8181ZM14.6655 39.8491C19.2655 39.8491 22.9985 36.1151 22.9985 31.5151V14.8501C22.9985 19.4501 19.2655 23.1831 14.6655 23.1831M14.6645 23.1821H6.33154V39.8481H14.6645V23.1821Z" fill="white"/>
</g>
</g>
</g>
<defs>
<clipPath id="clip0_0_1039">
<rect width="50" height="51" fill="white" transform="translate(6.33154 6)"/>
</clipPath>
<clipPath id="clip1_0_1039">
<rect width="50" height="51" fill="white" transform="translate(6.33154 6)"/>
</clipPath>
</defs>
</svg>
