<svg width="101" height="101" viewBox="0 0 101 101" fill="none" xmlns="http://www.w3.org/2000/svg">
<g clip-path="url(#clip0_0_511)">
<g clip-path="url(#clip1_0_511)">
<path d="M50.33 99.4182C77.3919 99.4182 99.33 77.4802 99.33 50.4182C99.33 23.3563 77.3919 1.41821 50.33 1.41821C23.268 1.41821 1.32996 23.3563 1.32996 50.4182C1.32996 77.4802 23.268 99.4182 50.33 99.4182Z" fill="#131313" fill-opacity="0.89"/>
<mask id="mask0_0_511" style="mask-type:luminance" maskUnits="userSpaceOnUse" x="22" y="22" width="57" height="57">
<path d="M78.33 22.4182H22.33V78.4182H78.33V22.4182Z" fill="white"/>
</mask>
<g mask="url(#mask0_0_511)">
<path d="M74.8304 57.4187C74.8277 61.7797 73.1969 65.9827 70.2573 69.2041C67.3176 72.4255 63.2811 74.4333 58.9385 74.834C54.5959 75.2348 50.2601 73.9997 46.7806 71.3706C43.3011 68.7416 40.9286 64.9081 40.1279 60.6212C42.921 61.1407 45.7986 60.9724 48.5121 60.1307C51.2256 59.2891 53.6934 57.7995 55.7023 55.7906C57.7112 53.7817 59.2008 51.3139 60.0424 48.6004C60.8841 45.8869 61.0524 43.0093 60.5329 40.2162C64.5493 40.9638 68.1775 43.0931 70.7888 46.2349C73.4001 49.3768 74.8299 53.3333 74.8304 57.4187ZM57.3304 39.9187C58.4047 39.9197 59.4767 40.0193 60.5329 40.2162C59.95 37.0824 58.5223 34.1673 56.4038 31.7856C54.2853 29.4039 51.5566 27.646 48.5121 26.7017C45.4676 25.7575 42.2231 25.6627 39.1287 26.4275C36.0343 27.1924 33.2075 28.7879 30.9536 31.0419C28.6996 33.2958 27.1041 36.1226 26.3392 39.217C25.5744 42.3114 25.6692 45.5559 26.6134 48.6004C27.5577 51.6449 29.3156 54.3736 31.6973 56.4921C34.079 58.6106 36.9941 60.0383 40.1279 60.6212C39.6577 58.0953 39.7495 55.4969 40.3967 53.0104C41.0439 50.524 42.2306 48.2106 43.8726 46.2345C45.5147 44.2584 47.5717 42.6681 49.8975 41.5765C52.2234 40.485 54.7611 39.919 57.3304 39.9187Z" fill="#BDFF02"/>
</g>
</g>
</g>
<defs>
<clipPath id="clip0_0_511">
<rect width="100" height="100" fill="white" transform="translate(0.329956 0.418213)"/>
</clipPath>
<clipPath id="clip1_0_511">
<rect width="100" height="100" fill="white" transform="translate(0.329956 0.418213)"/>
</clipPath>
</defs>
</svg>
