<svg width="95" height="69" viewBox="0 0 95 69" fill="none" xmlns="http://www.w3.org/2000/svg">
<g clip-path="url(#clip0_4006_449)">
<path d="M85.7958 20.5601L88.9268 4.60107L74.5498 12.4781L81.6318 14.5331L85.7958 20.5601Z" fill="black"/>
<path d="M85.7958 20.5601L88.9268 4.60107L74.5498 12.4781L81.6318 14.5331L85.7958 20.5601Z" stroke="white"/>
<path d="M76.5498 22.5601C76.5498 22.0296 76.3391 21.5209 75.964 21.1458C75.5889 20.7708 75.0802 20.5601 74.5498 20.5601H23.5498C14.1608 20.5601 6.5498 28.1711 6.5498 37.5601C6.5498 46.9491 14.1608 54.5601 23.5498 54.5601H52.5498C65.8048 54.5601 76.5498 43.8151 76.5498 30.5601V22.5601Z" fill="#75B78F"/>
<path opacity="0.8" d="M25.1546 42.7401C23.9446 42.7401 22.9696 42.3951 22.2296 41.7051C21.4896 41.0051 21.0996 40.1901 21.0596 39.2601H23.2346C23.3146 39.7301 23.5296 40.0951 23.8796 40.3551C24.2296 40.6051 24.6546 40.7301 25.1546 40.7301C25.6046 40.7301 25.9696 40.6351 26.2496 40.4451C26.5296 40.2451 26.6696 39.9801 26.6696 39.6501C26.6696 39.0601 26.1946 38.6301 25.2446 38.3601L24.1196 38.0301C23.2496 37.7801 22.5696 37.3901 22.0796 36.8601C21.5896 36.3301 21.3396 35.6701 21.3296 34.8801C21.3296 33.9101 21.6546 33.1451 22.3046 32.5851C22.9546 32.0151 23.8196 31.7301 24.8996 31.7301C25.9896 31.7301 26.8746 32.0601 27.5546 32.7201C28.2346 33.3701 28.5946 34.1201 28.6346 34.9701H26.4746C26.3646 34.5501 26.1646 34.2401 25.8746 34.0401C25.5846 33.8401 25.2596 33.7401 24.8996 33.7401C24.4996 33.7401 24.1696 33.8301 23.9096 34.0101C23.6596 34.1801 23.5296 34.4201 23.5196 34.7301C23.5096 35.0501 23.6146 35.3101 23.8346 35.5101C24.0546 35.7101 24.3946 35.8751 24.8546 36.0051L26.0996 36.3501C27.9396 36.8601 28.8596 37.9351 28.8596 39.5751C28.8596 40.4951 28.5146 41.2551 27.8246 41.8551C27.1446 42.4451 26.2546 42.7401 25.1546 42.7401ZM33.3266 42.7251C32.3366 42.7251 31.5016 42.3401 30.8216 41.5701C30.1416 40.8001 29.8016 39.8801 29.8016 38.8101C29.8016 37.7401 30.1416 36.8201 30.8216 36.0501C31.5016 35.2801 32.3366 34.8951 33.3266 34.8951C33.8066 34.8951 34.2366 34.9951 34.6166 35.1951C34.9966 35.3951 35.2866 35.6301 35.4866 35.9001V35.0601H37.5416V42.5601H35.4866V41.7201C35.2866 41.9901 34.9966 42.2251 34.6166 42.4251C34.2366 42.6251 33.8066 42.7251 33.3266 42.7251ZM32.3816 40.2801C32.7316 40.6601 33.1916 40.8501 33.7616 40.8501C34.3316 40.8501 34.7866 40.6601 35.1266 40.2801C35.4766 39.9001 35.6516 39.4101 35.6516 38.8101C35.6516 38.2101 35.4766 37.7201 35.1266 37.3401C34.7866 36.9601 34.3316 36.7701 33.7616 36.7701C33.1916 36.7701 32.7316 36.9601 32.3816 37.3401C32.0416 37.7201 31.8716 38.2101 31.8716 38.8101C31.8716 39.4101 32.0416 39.9001 32.3816 40.2801ZM39.3886 42.5601V35.0601H41.4436V36.2601C41.5736 35.8901 41.8086 35.5851 42.1486 35.3451C42.4986 35.0951 42.8836 34.9701 43.3036 34.9701C43.5636 34.9701 43.7936 35.0001 43.9936 35.0601V37.1451C43.6636 37.0351 43.3536 36.9801 43.0636 36.9801C42.5736 36.9801 42.1786 37.1601 41.8786 37.5201C41.5886 37.8701 41.4436 38.3551 41.4436 38.9751V42.5601H39.3886ZM47.9386 42.7251C46.9486 42.7251 46.1136 42.3401 45.4336 41.5701C44.7536 40.8001 44.4136 39.8801 44.4136 38.8101C44.4136 37.7401 44.7536 36.8201 45.4336 36.0501C46.1136 35.2801 46.9486 34.8951 47.9386 34.8951C48.4186 34.8951 48.8486 34.9951 49.2286 35.1951C49.6086 35.3951 49.8986 35.6301 50.0986 35.9001V35.0601H52.1536V42.5601H50.0986V41.7201C49.8986 41.9901 49.6086 42.2251 49.2286 42.4251C48.8486 42.6251 48.4186 42.7251 47.9386 42.7251ZM46.9936 40.2801C47.3436 40.6601 47.8036 40.8501 48.3736 40.8501C48.9436 40.8501 49.3986 40.6601 49.7386 40.2801C50.0886 39.9001 50.2636 39.4101 50.2636 38.8101C50.2636 38.2101 50.0886 37.7201 49.7386 37.3401C49.3986 36.9601 48.9436 36.7701 48.3736 36.7701C47.8036 36.7701 47.3436 36.9601 46.9936 37.3401C46.6536 37.7201 46.4836 38.2101 46.4836 38.8101C46.4836 39.4101 46.6536 39.9001 46.9936 40.2801ZM56.0566 42.5601H54.0016V31.3101H56.0566V35.9151C56.5166 35.2351 57.2316 34.8951 58.2016 34.8951C59.1016 34.8951 59.8066 35.1951 60.3156 35.7951C60.8356 36.3851 61.0956 37.1751 61.0956 38.1651V42.5601H59.0416V38.5101C59.0416 37.9601 58.9266 37.5351 58.6966 37.2351C58.4666 36.9251 58.1416 36.7701 57.7216 36.7701C57.2216 36.7701 56.8166 36.9501 56.5066 37.3101C56.2066 37.6701 56.0566 38.2001 56.0566 38.9001V42.5601Z" fill="black"/>
</g>
<defs>
<clipPath id="clip0_4006_449">
<rect width="94" height="68" fill="white" transform="translate(0.549805 0.560059)"/>
</clipPath>
</defs>
</svg>
