<svg width="101" height="101" viewBox="0 0 101 101" fill="none" xmlns="http://www.w3.org/2000/svg">
<g clip-path="url(#clip0_0_529)">
<g clip-path="url(#clip1_0_529)">
<path d="M50.66 99.4182C77.7219 99.4182 99.66 77.4802 99.66 50.4182C99.66 23.3563 77.7219 1.41821 50.66 1.41821C23.598 1.41821 1.65997 23.3563 1.65997 50.4182C1.65997 77.4802 23.598 99.4182 50.66 99.4182Z" fill="#131313" fill-opacity="0.89"/>
<mask id="mask0_0_529" style="mask-type:luminance" maskUnits="userSpaceOnUse" x="22" y="22" width="57" height="57">
<path d="M78.6599 22.4182H22.6599V78.4182H78.6599V22.4182Z" fill="white"/>
</mask>
<g mask="url(#mask0_0_529)">
<path d="M50.3142 27.6679C38.132 27.8538 28.1745 37.75 27.9098 49.9388C27.8171 54.0385 28.8393 58.0865 30.8673 61.6507C30.947 61.79 31.0634 61.9047 31.2039 61.9823C31.3444 62.0599 31.5035 62.0973 31.6639 62.0906C31.8242 62.0838 31.9796 62.033 32.113 61.9439C32.2465 61.8547 32.3528 61.7306 32.4205 61.585C34.0634 58.0957 34.9128 54.2856 34.9076 50.4288C34.9038 48.0665 35.4331 45.7337 36.4561 43.6043C37.4791 41.475 38.9694 39.604 40.8161 38.1307C40.9972 37.989 41.2044 37.8845 41.426 37.823C41.6475 37.7614 41.879 37.7441 42.1072 37.7721C42.3354 37.8 42.5559 37.8726 42.756 37.9857C42.9562 38.0989 43.1321 38.2503 43.2737 38.4314C43.4154 38.6126 43.5199 38.8198 43.5814 39.0413C43.643 39.2629 43.6603 39.4944 43.6323 39.7226C43.6044 39.9508 43.5318 40.1713 43.4187 40.3714C43.3055 40.5716 43.1541 40.7475 42.973 40.8891C41.5454 42.036 40.394 43.4892 39.6042 45.1413C38.8143 46.7934 38.4061 48.602 38.4098 50.4332C38.4156 55.6869 37.0226 60.8475 34.3739 65.3847C34.2757 65.5514 34.2356 65.746 34.2597 65.938C34.2838 66.1299 34.3709 66.3085 34.5073 66.4457C34.9448 66.8832 35.402 67.3207 35.8745 67.7188C35.9714 67.8001 36.0847 67.8595 36.2067 67.8929C36.3287 67.9262 36.4564 67.9327 36.5812 67.9119C36.7059 67.8911 36.8247 67.8435 36.9293 67.7724C37.0339 67.7013 37.1218 67.6084 37.187 67.5C39.1236 64.2851 40.4987 60.764 41.2536 57.0875C41.3461 56.6327 41.6155 56.2332 42.0026 55.977C42.3897 55.7209 42.8626 55.6289 43.3175 55.7214C43.7723 55.814 44.1718 56.0834 44.428 56.4705C44.6842 56.8575 44.7761 57.3305 44.6836 57.7854C43.8374 61.9337 42.2779 65.9038 40.0745 69.5191C40.0124 69.6219 39.9721 69.7364 39.9561 69.8554C39.9401 69.9744 39.9488 70.0955 39.9816 70.211C40.0145 70.3265 40.0707 70.4341 40.1469 70.5269C40.2231 70.6198 40.3176 70.6959 40.4245 70.7507C40.9648 71.0241 41.5183 71.2779 42.0805 71.5097C42.2746 71.5929 42.4922 71.6031 42.6932 71.5383C42.8943 71.4736 43.0651 71.3384 43.1742 71.1575C46.9324 64.9152 48.9155 57.7655 48.9098 50.4791C48.9053 50.0299 49.0704 49.5955 49.3721 49.2626C49.6737 48.9297 50.0898 48.7228 50.5373 48.6832C50.7772 48.6663 51.018 48.6991 51.2447 48.7795C51.4714 48.8599 51.679 48.9861 51.8547 49.1503C52.0304 49.3145 52.1704 49.5132 52.2659 49.7339C52.3614 49.9546 52.4104 50.1927 52.4098 50.4332C52.4185 57.8727 50.5198 65.1902 46.8951 71.6869C46.8254 71.8113 46.7871 71.9509 46.7836 72.0936C46.7801 72.2362 46.8116 72.3775 46.8752 72.5051C46.9388 72.6328 47.0327 72.743 47.1486 72.8261C47.2646 72.9092 47.3991 72.9627 47.5405 72.9819C48.204 73.0738 48.8756 73.1365 49.5551 73.17C49.7185 73.1761 49.8803 73.1363 50.0222 73.0551C50.1641 72.9739 50.2804 72.8546 50.358 72.7107C53.996 65.9055 55.9027 58.3094 55.9098 50.5929C55.9208 47.6944 53.6567 45.2357 50.7605 45.181C50.0637 45.1676 49.3713 45.2931 48.7235 45.5501C48.0757 45.8072 47.4856 46.1906 46.9876 46.678C46.4896 47.1655 46.0936 47.7472 45.8227 48.3893C45.5518 49.0314 45.4114 49.721 45.4098 50.4179C45.4066 50.8549 45.242 51.2753 44.9477 51.5983C44.6533 51.9213 44.25 52.1242 43.8151 52.1679C43.5726 52.1895 43.3282 52.1602 43.0977 52.082C42.8671 52.0038 42.6554 51.8783 42.476 51.7136C42.2967 51.5489 42.1537 51.3486 42.0562 51.1255C41.9587 50.9023 41.9089 50.6613 41.9098 50.4179C41.9098 49.261 42.1391 48.1156 42.5846 47.048C43.03 45.9804 43.6828 45.0117 44.505 44.198C45.3273 43.3842 46.3028 42.7416 47.375 42.3074C48.4472 41.8731 49.5949 41.6557 50.7517 41.6679C55.5642 41.7182 59.4317 45.8613 59.4076 50.6716C59.3863 57.8066 57.8566 64.8566 54.9189 71.3588C54.8521 71.5086 54.8288 71.6741 54.8516 71.8365C54.8743 71.9988 54.9422 72.1516 55.0476 72.2772C55.153 72.4029 55.2915 72.4964 55.4474 72.5471C55.6034 72.5978 55.7704 72.6037 55.9295 72.5641C56.6884 72.3842 57.4376 72.1651 58.1739 71.9079C58.2887 71.8671 58.3936 71.8029 58.4822 71.7193C58.5707 71.6357 58.6408 71.5345 58.688 71.4222C59.7066 69.0081 60.546 66.5222 61.1992 63.9847C61.2567 63.7621 61.3574 63.553 61.4957 63.3693C61.634 63.1856 61.8071 63.0309 62.0051 62.9141C62.2032 62.7973 62.4223 62.7207 62.6499 62.6885C62.8776 62.6564 63.1094 62.6695 63.332 62.7269C63.5546 62.7844 63.7638 62.8851 63.9475 63.0234C64.1312 63.1617 64.2858 63.3348 64.4026 63.5328C64.5194 63.7309 64.5961 63.95 64.6282 64.1777C64.6603 64.4053 64.6473 64.6371 64.5898 64.8597C64.4265 65.497 64.2515 66.1314 64.0648 66.7629C64.0099 66.9447 64.0156 67.1394 64.0811 67.3177C64.1466 67.496 64.2683 67.6481 64.4279 67.7511C64.5875 67.8541 64.7762 67.9024 64.9656 67.8887C65.1551 67.875 65.3349 67.8 65.478 67.675C69.0254 64.6288 71.5481 60.5635 72.7026 56.0324C73.8571 51.5013 73.5874 46.7245 71.9301 42.3522C70.2729 37.9798 67.3087 34.2243 63.4408 31.5968C59.573 28.9693 54.9895 27.5974 50.3142 27.6679ZM65.9723 57.6541C65.9191 58.0764 65.7139 58.4648 65.395 58.7466C65.0761 59.0285 64.6654 59.1844 64.2398 59.1854C64.1667 59.1853 64.0937 59.181 64.0211 59.1722C63.793 59.1438 63.5727 59.0708 63.3728 58.9572C63.173 58.8437 62.9974 58.6919 62.8562 58.5105C62.7151 58.3291 62.611 58.1216 62.55 57.9C62.489 57.6784 62.4723 57.4469 62.5008 57.2188C62.7798 54.9691 62.92 52.7044 62.9208 50.4375C62.9161 47.1901 61.624 44.0769 59.3277 41.7806C57.0314 39.4843 53.9182 38.1922 50.6708 38.1875C50.1589 38.1873 49.6475 38.2187 49.1395 38.2816C48.6786 38.3396 48.2135 38.2122 47.8465 37.9272C47.4796 37.6423 47.2408 37.2233 47.1828 36.7624C47.1248 36.3014 47.2522 35.8363 47.5372 35.4694C47.8221 35.1024 48.2411 34.8637 48.702 34.8057C50.9194 34.5298 53.1701 34.7283 55.305 35.388C57.4399 36.0476 59.4102 37.1534 61.0855 38.632C62.7608 40.1106 64.1028 41.9283 65.0226 43.9647C65.9424 46.001 66.419 48.2096 66.4208 50.4441C66.4202 52.8544 66.2705 55.2623 65.9723 57.6541Z" fill="#BDFF02"/>
</g>
</g>
</g>
<defs>
<clipPath id="clip0_0_529">
<rect width="100" height="100" fill="white" transform="translate(0.659973 0.418213)"/>
</clipPath>
<clipPath id="clip1_0_529">
<rect width="100" height="100" fill="white" transform="translate(0.659973 0.418213)"/>
</clipPath>
</defs>
</svg>
