<svg width="100" height="101" viewBox="0 0 100 101" fill="none" xmlns="http://www.w3.org/2000/svg">
<g clip-path="url(#clip0_0_492)">
<g clip-path="url(#clip1_0_492)">
<g clip-path="url(#clip2_0_492)">
<path d="M50 99.4182C77.062 99.4182 99 77.4802 99 50.4182C99 23.3563 77.062 1.41821 50 1.41821C22.938 1.41821 1 23.3563 1 50.4182C1 77.4802 22.938 99.4182 50 99.4182Z" fill="#131313" fill-opacity="0.89"/>
<mask id="mask0_0_492" style="mask-type:luminance" maskUnits="userSpaceOnUse" x="22" y="22" width="56" height="57">
<path d="M78 22.4182H22V78.4182H78V22.4182Z" fill="white"/>
</mask>
<g mask="url(#mask0_0_492)">
<path d="M72.2884 38.2227C71.9688 37.6645 71.5009 37.2057 70.9366 36.897L51.68 26.3555C51.1653 26.0725 50.5874 25.9241 50 25.9241C49.4126 25.9241 48.8347 26.0725 48.32 26.3555L29.07 36.8948C28.5057 37.2035 28.0378 37.6623 27.7181 38.2205C27.4134 38.7488 27.2521 39.3475 27.25 39.9573V60.8786C27.2514 61.5052 27.4211 62.12 27.7412 62.6587C28.0614 63.1974 28.5203 63.6403 29.07 63.9411L48.32 74.4783C48.8343 74.7625 49.4124 74.9115 50 74.9115C50.5876 74.9115 51.1657 74.7625 51.68 74.4783L70.93 63.9411C71.4797 63.6403 71.9386 63.1974 72.2588 62.6587C72.5789 62.12 72.7486 61.5052 72.75 60.8786V39.9573C72.7496 39.3488 72.5905 38.7509 72.2884 38.2227ZM48.25 70.4577L41.25 66.6252V55.668C41.2493 55.3546 41.1645 55.0472 41.0044 54.7779C40.8443 54.5085 40.6149 54.2871 40.34 54.1367L30.75 48.8867V41.8867L48.25 51.468V70.4577ZM50 48.423L32.6444 38.9205L40.1869 34.7927L49.1556 39.7036C49.4132 39.8445 49.702 39.9184 49.9956 39.9184C50.2892 39.9184 50.5781 39.8445 50.8356 39.7036L59.8044 34.7927L67.3469 38.9205L50 48.423ZM69.25 48.8823L59.66 54.1323C59.3851 54.2827 59.1557 54.5042 58.9956 54.7735C58.8355 55.0429 58.7507 55.3503 58.75 55.6636V66.6208L51.75 70.4533V51.4548L69.25 41.8736V48.8823Z" fill="#BDFF02"/>
</g>
</g>
</g>
</g>
<defs>
<clipPath id="clip0_0_492">
<rect width="100" height="100" fill="white" transform="translate(0 0.418213)"/>
</clipPath>
<clipPath id="clip1_0_492">
<rect width="100" height="100" fill="white" transform="translate(0 0.418213)"/>
</clipPath>
<clipPath id="clip2_0_492">
<rect width="100" height="100" fill="white" transform="translate(0 0.418213)"/>
</clipPath>
</defs>
</svg>
